<?xml version="1.0" encoding="utf-8"?>
<!-- Generator: Adobe Illustrator 19.1.0, SVG Export Plug-In . SVG Version: 6.00 Build 0)  -->
<svg version="1.1" id="Camada_1" xmlns="http://www.w3.org/2000/svg" xmlns:xlink="http://www.w3.org/1999/xlink" x="0px" y="0px"
	 viewBox="254.5 92.6 452.8 375.4" style="enable-background:new 254.5 92.6 452.8 375.4;" xml:space="preserve">
<style type="text/css">
	.st0{fill:#E4E77A;}
	.st1{fill:#C4B36C;}
	.st2{fill:#774633;stroke:#3B2314;stroke-width:5;stroke-miterlimit:10;}
	.st3{fill:#D6BB28;}
	.st4{fill:#9EC8EB;stroke:#603813;stroke-width:5;stroke-miterlimit:10;}
	.st5{fill:#5F3A16;}
</style>
<g>
	<path class="st0" d="M340.9,465.5c-5.2,0-9.5-4.3-9.5-9.5V284.6c0-1-0.6-1.9-1.5-2.3c-0.3-0.1-0.6-0.2-1-0.2
		c-0.6,0-1.3,0.2-1.7,0.7l-36.9,36c-1.8,1.7-4.1,2.7-6.6,2.7c-2.6,0-5-1-6.8-2.8l-14.7-15c-1.8-1.8-2.7-4.2-2.7-6.7s1-4.8,2.7-6.6
		l208.9-150.9c1.1,8.5,1.9,15.1,2.3,19.9c0.1,1,0.7,1.8,1.6,2.1c0.3,0.1,0.6,0.2,0.9,0.2c0.7,0,1.3-0.3,1.8-0.7l12-12
		c1.8-1.8,4.2-2.8,6.7-2.8s4.9,1,6.7,2.8c0.1,0.1,0.2,0.2,0.3,0.3l184,131.7l0.3,0.3c0.9,0.9,1.8,1.7,2.2,2.3
		c-0.4,0.5-1.1,1.2-1.9,2h-8c-0.7,0-1.3,0.3-1.8,0.7l-0.5,0.5c-0.9,0.9-1.7,1.8-2.3,2.2c-0.5-0.4-1.4-1.3-2.3-2.2l-0.5-0.5
		c-0.3-0.3-0.8-0.6-1.2-0.7l-18.1-4.1c-0.2,0-0.4-0.1-0.6-0.1c-0.6,0-1.1,0.2-1.6,0.5c-0.6,0.5-0.9,1.2-0.9,2V456
		c0,5.2-4.3,9.5-9.5,9.5H340.9z"/>
	<path class="st1" d="M469.2,143.9c0.7,5.3,1.2,9.7,1.5,13.3l-1.2,1.2c-2.2,2.2-1.7,4.9,0.2,9.4c0.6,1.4,2.1,5,5.9,5
		c1.5,0,2.9-0.6,3.9-1.7c1.6-1.7,2-4,1.6-10.1l10.4-10.4c1.3-1.3,3.1-2,4.9-2c1.9,0,3.6,0.7,4.9,2c0.2,0.2,0.4,0.4,0.6,0.5
		l183.8,131.6l0.2,0.2H680c-1.3,0-2.6,0.5-3.5,1.5l-0.5,0.5c-0.2,0.2-0.3,0.3-0.5,0.5c-0.2-0.2-0.3-0.3-0.5-0.5l-0.5-0.5
		c-0.7-0.7-1.5-1.1-2.4-1.3L654,279c-0.4-0.1-0.7-0.1-1.1-0.1c-1.1,0-2.2,0.4-3.1,1.1c-1.2,0.9-1.9,2.4-1.9,3.9V456c0,3.9-3.1,7-7,7
		h-300c-3.9,0-7-3.1-7-7V284.6c0-2-1.2-3.8-3.1-4.6c-0.6-0.3-1.3-0.4-1.9-0.4c-1.3,0-2.5,0.5-3.5,1.4l-36.9,36c-1.3,1.3-3,2-4.9,2
		s-3.7-0.7-5-2.1l-14.7-15c-1.3-1.3-2-3.1-2-5c0-1.8,0.7-3.4,1.9-4.7L469.2,143.9 M473,135L260.6,288.4c-4.7,4.6-4.8,12.2-0.2,17
		l14.7,15c2.3,2.4,5.5,3.6,8.6,3.6c3,0,6.1-1.1,8.4-3.4l36.9-36V456c0,6.6,5.4,12,12,12h300c6.6,0,12-5.4,12-12V283.9l18,4.1
		c2.3,2.3,3.4,3.5,4.5,3.5s2.2-1.2,4.5-3.5h9c4.7-4.7,4.7-4.3,0-9L504.8,147.2c-2.3-2.3-5.4-3.5-8.5-3.5s-6.2,1.2-8.5,3.5l-12,12
		c0.5,6.7,0.2,8.7-0.3,8.7c-0.9,0-2.6-5.8-2.5-5.9l2.9-2.9C475.5,154.1,474.6,146.4,473,135L473,135z"/>
</g>
<path class="st2" d="M540.5,465.5v-105c0-6.6-5.4-12-12-12h-75c-6.6,0-12,5.4-12,12v105H540.5z"/>
<circle class="st3" cx="464" cy="432" r="9"/>
<g>
	<path class="st4" d="M425,324h-39c-6.6,0-12-5.4-12-12v-26.4c0-6.6,5.4-12,12-12h39c6.6,0,12,5.4,12,12V312
		C437,318.6,431.6,324,425,324z"/>
	<rect x="403" y="274" class="st5" width="5" height="50"/>
	<rect x="374.5" y="296.5" class="st5" width="63" height="5"/>
</g>
<g>
	<path class="st4" d="M596,324h-39c-6.6,0-12-5.4-12-12v-26.4c0-6.6,5.4-12,12-12h39c6.6,0,12,5.4,12,12V312
		C608,318.6,602.6,324,596,324z"/>
	<rect x="574" y="274" class="st5" width="5" height="50"/>
	<rect x="545.5" y="296.5" class="st5" width="63" height="5"/>
</g>
<path class="st2" d="M673.9,306.7L483.4,174.1c-5.4-3.8-6.8-11.3-3-16.7l12-17.2c3.8-5.4,11.3-6.8,16.7-3l190.5,132.6
	c5.4,3.8,6.8,11.3,3,16.7l-12,17.2C686.8,309.1,679.3,310.5,673.9,306.7z"/>
<path class="st2" d="M531.4,133.2L289.2,321.5c-5.2,4.1-12.8,3.1-16.8-2.1l-12.9-16.6c-4.1-5.2-3.1-12.8,2.1-16.8L503.7,97.6
	c5.2-4.1,12.8-3.1,16.8,2.1l12.9,16.6C537.5,121.5,536.6,129.1,531.4,133.2z"/>
</svg>
