<?xml version="1.0" encoding="utf-8"?>
<!-- Generator: Adobe Illustrator 19.1.0, SVG Export Plug-In . SVG Version: 6.00 Build 0)  -->
<svg version="1.1" id="Camada_1" xmlns="http://www.w3.org/2000/svg" xmlns:xlink="http://www.w3.org/1999/xlink" x="0px" y="0px"
	 viewBox="0 0 145.5 106.8" style="enable-background:new 0 0 145.5 106.8;" xml:space="preserve">
<style type="text/css">
	.st0{fill:#00BDF1;}
	.st1{fill:none;stroke:#188FAA;stroke-miterlimit:10;}
	.st2{fill:#E5173A;}
	.st3{fill:#E2A41A;}
	.st4{fill:#10E51F;}
	.st5{fill:#0C39AA;}
</style>
<g>
	<path class="st0" d="M124.2,2c-7.9-7.9-37.3,8.8-65.7,37.2S13.4,97,21.3,104.8c7.9,7.9,37.3-8.8,65.7-37.2S132.1,9.8,124.2,2z
		 M35.9,90.3c-5.6-5.6,6.3-26.7,26.6-47.1s41.4-32.3,47.1-26.6S103.3,43.3,83,63.6S41.5,95.9,35.9,90.3z"/>
	
		<ellipse transform="matrix(0.7071 0.7071 -0.7071 0.7071 59.0659 -35.8017)" class="st1" cx="72.7" cy="53.4" rx="16.7" ry="60.3"/>
</g>
<g>
	<path class="st0" d="M145.5,53.4c0-11.1-32.6-20.2-72.7-20.2S0,42.3,0,53.4c0,11.1,32.6,20.2,72.7,20.2S145.5,64.5,145.5,53.4z
		 M20.6,53.4c0-8,23.3-14.5,52.1-14.5s52.1,6.5,52.1,14.5s-23.3,14.5-52.1,14.5S20.6,61.4,20.6,53.4z"/>
	<ellipse class="st1" cx="72.7" cy="53.4" rx="60.3" ry="16.7"/>
</g>
<g>
	<path class="st0" d="M21.3,2c-7.9,7.9,8.8,37.3,37.2,65.7s57.8,45.1,65.7,37.2c7.9-7.9-8.8-37.3-37.2-65.7S29.2-5.9,21.3,2z
		 M109.6,90.3C104,95.9,82.9,84,62.5,63.6S30.2,22.2,35.9,16.5S62.6,22.8,83,43.2S115.3,84.6,109.6,90.3z"/>
	
		<ellipse transform="matrix(0.7071 -0.7071 0.7071 0.7071 -16.4503 67.0815)" class="st1" cx="72.7" cy="53.4" rx="16.7" ry="60.3"/>
</g>
<circle class="st2" cx="108.2" cy="38.9" r="7.3"/>
<circle class="st3" cx="31.5" cy="78.3" r="8.7"/>
<circle class="st4" cx="88.5" cy="90.3" r="7.4"/>
<circle class="st5" cx="58.5" cy="19.3" r="7.4"/>
</svg>
