<?xml version="1.0" encoding="utf-8"?>
<!-- Generator: Adobe Illustrator 19.1.0, SVG Export Plug-In . SVG Version: 6.00 Build 0)  -->
<svg version="1.1" id="Camada_1" xmlns="http://www.w3.org/2000/svg" xmlns:xlink="http://www.w3.org/1999/xlink" x="0px" y="0px"
	 viewBox="142.9 57.4 643.8 498.9" style="enable-background:new 142.9 57.4 643.8 498.9;" xml:space="preserve">
<style type="text/css">
	.st0{fill:#E169A7;stroke:#E3358F;stroke-miterlimit:10;}
	.st1{fill:#F7D85B;stroke:#E7C94B;stroke-miterlimit:10;}
	.st2{fill:#F05E73;stroke:#BC445B;stroke-miterlimit:10;}
	.st3{fill:#D7556E;stroke:#BC445B;stroke-miterlimit:10;}
	.st4{fill:#F4E0C5;}
	.st5{fill:#2E91CF;stroke:#24335B;stroke-miterlimit:10;}
	.st6{fill:#E7CFB1;stroke:#5E3126;stroke-miterlimit:10;}
	.st7{fill:none;stroke:#231F20;stroke-width:3;stroke-linecap:round;stroke-miterlimit:10;}
	.st8{fill:none;stroke:#CE9D84;stroke-miterlimit:10;}
	.st9{fill:#24335B;}
	.st10{fill:#E4B0BC;}
	.st11{opacity:0.5;fill:none;stroke:#CE9D84;stroke-miterlimit:10;enable-background:new    ;}
</style>
<path class="st0" d="M653,229.7c0,0,24.1-29.5,45-4.1s15.4,38.6,4.1,61.3c-11.8,14.1-28.6,24.5-28.6,24.5h-45v-49.1
	c0,0,12.3-15,12.3-16.4S653,229.7,653,229.7z"/>
<path class="st1" d="M782.8,389.2c0,0-20.9-3.6-36.8-40.9c-3.2-6.4-13.6-23.2-53.2-16.4c-40,6.8-16.8,15.9-16.4,16.4
	c0.5,0.5,8.2,20.4,8.2,20.4s30.9,58.4,81.8,20.4C770.2,383.7,782.8,389.2,782.8,389.2z"/>
<path class="st2" d="M673.4,311.5c0,0,36.8-20,45-20.4c4.5,6.4-0.9,29.5,4.1,32.7c-0.5-1.8-12.7,11.8-49.1,0
	C660.7,316.9,673.4,311.5,673.4,311.5z"/>
<path class="st2" d="M685.7,340.1c0,0,11.8,21.4-8.2,36.8c-8.6-0.5-27.3-15.4-28.6-24.5c-1.4-10.5-0.9-11.4,20.4-20.4
	c2.3,0.5,12.3,0,12.3,0L685.7,340.1z"/>
<ellipse class="st3" cx="683.7" cy="331.9" rx="10.2" ry="8.2"/>
<path class="st0" d="M276.7,227.1c0,0-24.1-29.5-45-4.1s-15.4,38.6-4.1,61.3c11.8,14.1,28.6,24.5,28.6,24.5h45v-49.1
	c0,0-12.3-15-12.3-16.4S276.7,227.1,276.7,227.1z"/>
<path class="st1" d="M147,386.6c0,0,20.9-3.6,36.8-40.9c3.2-6.4,13.6-23.2,53.2-16.4c40,6.8,16.8,15.9,16.4,16.4
	c-0.5,0.5-8.2,20.4-8.2,20.4s-30.9,58.4-81.8,20.4C159.5,381.2,147,386.6,147,386.6z"/>
<path class="st2" d="M256.3,308.9c0,0-36.8-20-45-20.4c-4.5,6.4,0.9,29.5-4.1,32.7c0.5-1.8,12.7,11.8,49.1,0
	C269,314.4,256.3,308.9,256.3,308.9z"/>
<path class="st2" d="M244,337.6c0,0-11.8,21.4,8.2,36.8c8.6-0.5,27.3-15.4,28.6-24.5c1.4-10.5,0.9-11.4-20.4-20.4
	c-2.3,0.5-12.3,0-12.3,0L244,337.6z"/>
<ellipse class="st3" cx="246.1" cy="329.4" rx="10.2" ry="8.2"/>
<path class="st4" d="M296.6,276.9c0,0,15.4,122.2,102.7,159.5s152.3-8.2,152.3-8.2c57.1-47.3,79.1-91.8,85-135c-0.4,0.5,0-8.2,0-8.2
	s23.2,1.4,24.8-8.2c2.4-38.6,11-51.3-10.6-85.9c-13.8-10-31.9,8.2-39,32.7c-3.1-4.5-25.2-67.9-53.1-81.8
	c-27.9-13.9-41.3-14.5-42.5-16.4s-77.9-12.3-77.9-12.3l-24.8,4.1c0,0-30.4,16.4-53.1,40.9s-39,65.4-39,65.4s4.7-42.7-21.3-45
	c-21.3,2.3-29.1,42.3-31.9,53.2C265.6,242.8,274.2,294.6,296.6,276.9z"/>
<path class="st1" d="M399.2,236c0,0-41.3-8.2-49.1,8.2C358.4,228.3,374.7,184.6,399.2,236z"/>
<path class="st1" d="M526.7,232.9c12-13.2,39.1-51.1,49.5,4.8C576.3,237.7,538.4,219.1,526.7,232.9"/>
<circle class="st5" cx="374.7" cy="272.8" r="12.3"/>
<circle class="st5" cx="554.7" cy="272.8" r="12.3"/>
<path class="st6" d="M501.1,331.5c0-12.4-15.4-26-34.3-26s-34.3,13.6-34.3,26s15.4,18.9,34.3,18.9S501.1,344,501.1,331.5z"/>
<path class="st7" d="M450.8,399.6c0.7,9.1,9,16.3,19.2,16.3s18.6-7.2,19.2-16.3"/>
<path class="st8" d="M284.7,229.6c0,0-0.6-14.9-12.3,2.7"/>
<path class="st8" d="M665.1,237.3c0,0,0.6-14.9,12.3,2.7"/>
<g>
	<path class="st9" d="M363.7,267.5c0,0-1-0.1-2.4-0.5c-0.7-0.2-1.5-0.5-2.4-0.9s-1.7-0.8-2.6-1.3c-0.4-0.3-0.8-0.5-1.2-0.9
		c-0.4-0.3-0.7-0.6-1.1-0.9c-0.3-0.3-0.6-0.6-0.9-1c-0.3-0.3-0.5-0.6-0.7-1c-0.2-0.3-0.4-0.6-0.5-0.9s-0.2-0.5-0.3-0.7
		c-0.2-0.4-0.3-0.6-0.3-0.6s0.1,0.2,0.3,0.6c0.1,0.2,0.2,0.4,0.3,0.7c0.2,0.2,0.3,0.5,0.6,0.8c0.2,0.3,0.5,0.6,0.7,0.9
		c0.3,0.3,0.6,0.6,0.9,0.9s0.7,0.6,1.1,0.9s0.8,0.5,1.2,0.8c0.8,0.5,1.7,0.8,2.5,1.1c0.8,0.3,1.6,0.5,2.3,0.7
		c1.4,0.3,2.3,0.4,2.3,0.4L363.7,267.5z"/>
</g>
<g>
	<path class="st9" d="M362.4,273.3c0,0-1.1-0.1-2.7-0.5c-0.4-0.1-0.8-0.2-1.2-0.4c-0.4-0.1-0.9-0.3-1.4-0.6
		c-0.5-0.2-0.9-0.5-1.4-0.7c-0.4-0.3-0.9-0.6-1.3-0.9s-0.8-0.7-1.2-1.1c-0.2-0.2-0.4-0.4-0.5-0.6c-0.2-0.2-0.3-0.4-0.5-0.6
		c-0.1-0.2-0.3-0.4-0.4-0.6s-0.2-0.4-0.3-0.6c-0.1-0.2-0.2-0.4-0.3-0.6c-0.1-0.2-0.1-0.4-0.2-0.6c-0.1-0.4-0.3-0.7-0.3-1
		c-0.1-0.3-0.1-0.6-0.2-0.8c-0.1-0.5-0.1-0.7-0.1-0.7s0.1,0.3,0.2,0.7c0.1,0.2,0.1,0.5,0.2,0.8s0.3,0.6,0.4,1
		c0.1,0.2,0.2,0.4,0.2,0.6c0.1,0.2,0.2,0.4,0.3,0.6c0.1,0.2,0.2,0.4,0.4,0.6c0.1,0.2,0.3,0.4,0.4,0.6c0.2,0.2,0.3,0.4,0.5,0.6
		s0.4,0.3,0.6,0.5c0.4,0.4,0.8,0.7,1.2,1c0.4,0.3,0.9,0.5,1.3,0.8c0.5,0.2,0.9,0.5,1.4,0.6c0.4,0.2,0.9,0.3,1.3,0.5
		c0.4,0.1,0.8,0.2,1.2,0.3c1.5,0.3,2.5,0.3,2.5,0.3L362.4,273.3z"/>
</g>
<g>
	<path class="st9" d="M565.3,266.5c0,0,0.9-0.1,2.3-0.4c0.7-0.2,1.5-0.4,2.3-0.7c0.8-0.3,1.7-0.7,2.5-1.1c0.4-0.3,0.8-0.5,1.2-0.8
		s0.8-0.5,1.1-0.9c0.3-0.3,0.7-0.6,0.9-0.9c0.3-0.3,0.5-0.6,0.7-0.9s0.4-0.6,0.6-0.8c0.1-0.3,0.2-0.5,0.3-0.7
		c0.2-0.4,0.3-0.6,0.3-0.6s-0.1,0.2-0.3,0.6c-0.1,0.2-0.2,0.4-0.3,0.7c-0.1,0.3-0.3,0.5-0.5,0.9c-0.2,0.3-0.4,0.6-0.7,1
		c-0.2,0.3-0.6,0.7-0.9,1c-0.3,0.3-0.7,0.6-1.1,0.9c-0.4,0.3-0.8,0.6-1.2,0.9c-0.8,0.5-1.7,1-2.6,1.3c-0.8,0.4-1.7,0.6-2.4,0.9
		c-1.4,0.4-2.4,0.5-2.4,0.5L565.3,266.5z"/>
</g>
<g>
	<path class="st9" d="M566.7,272.3c0,0,1,0,2.5-0.3c0.4-0.1,0.8-0.2,1.2-0.3c0.4-0.1,0.9-0.3,1.3-0.5c0.5-0.2,0.9-0.4,1.4-0.6
		c0.4-0.3,0.9-0.5,1.3-0.8c0.4-0.3,0.8-0.6,1.2-1c0.2-0.2,0.4-0.3,0.6-0.5c0.2-0.2,0.3-0.4,0.5-0.6c0.1-0.2,0.3-0.4,0.4-0.6
		c0.1-0.2,0.2-0.4,0.4-0.6c0.1-0.2,0.2-0.4,0.3-0.6s0.2-0.4,0.2-0.6c0.1-0.4,0.3-0.7,0.4-1c0.1-0.3,0.1-0.6,0.2-0.8
		c0.1-0.4,0.2-0.7,0.2-0.7s0,0.3-0.1,0.7c0,0.2-0.1,0.5-0.2,0.8c-0.1,0.3-0.2,0.7-0.3,1c-0.1,0.2-0.1,0.4-0.2,0.6
		c-0.1,0.2-0.2,0.4-0.3,0.6s-0.2,0.4-0.3,0.6s-0.3,0.4-0.4,0.6c-0.1,0.2-0.3,0.4-0.5,0.6s-0.4,0.4-0.5,0.6c-0.3,0.4-0.8,0.7-1.2,1.1
		c-0.4,0.3-0.9,0.6-1.3,0.9c-0.5,0.2-0.9,0.5-1.4,0.7s-0.9,0.4-1.4,0.6c-0.4,0.2-0.9,0.3-1.2,0.4c-1.6,0.4-2.7,0.5-2.7,0.5
		L566.7,272.3z"/>
</g>
<path class="st1" d="M464.9,95.8c-0.7-3.1,83.8-83.5,165.6,11.1C680,180.5,673,168.7,641.9,246c0,0-126.4-5.6-173-114
	C464.2,121.1,467.9,109,464.9,95.8z"/>
<path class="st1" d="M464.9,93.2c-2.1-4.8-83.8-83.5-165.6,11.1c-49.5,73.6-42.5,61.8-11.4,139.1c0,0,118.9-35.7,177.1-111.4
	C470.1,120.4,467,98,464.9,93.2z"/>
<ellipse class="st10" cx="376.9" cy="316.1" rx="34.8" ry="18.4"/>
<ellipse class="st10" cx="561" cy="316.1" rx="34.8" ry="18.4"/>
<path class="st11" d="M197.4,553.8c0,0,0.5-12.5,10.3,2.3"/>
</svg>
