<?xml version="1.0" encoding="utf-8"?>
<!-- Generator: Adobe Illustrator 19.1.0, SVG Export Plug-In . SVG Version: 6.00 Build 0)  -->
<svg version="1.1" id="Camada_1" xmlns="http://www.w3.org/2000/svg" xmlns:xlink="http://www.w3.org/1999/xlink" x="0px" y="0px"
	 viewBox="158.6 17.8 599.9 533.2" style="enable-background:new 158.6 17.8 599.9 533.2;" xml:space="preserve">
<style type="text/css">
	.st0{fill:#F4E0C5;}
	.st1{fill:#F7D85B;stroke:#E7C94B;stroke-miterlimit:10;}
	.st2{fill:#08171F;stroke:#24335B;stroke-miterlimit:10;}
	.st3{fill:#E7CFB1;stroke:#5E3126;stroke-miterlimit:10;}
	.st4{fill:none;stroke:#231F20;stroke-width:3;stroke-linecap:round;stroke-miterlimit:10;}
	.st5{opacity:0.5;fill:none;stroke:#CE9D84;stroke-miterlimit:10;enable-background:new    ;}
	.st6{fill:#0E101A;stroke:#000000;stroke-miterlimit:10;}
	.st7{fill:#474E80;stroke:#3B4282;stroke-miterlimit:10;}
	.st8{fill:#6266AD;stroke:#3B4282;stroke-miterlimit:10;}
</style>
<path class="st0" d="M198,344.9c0,0,21,144.6,140.3,188.7s208.1-9.7,208.1-9.7c78-55.9,108.1-108.6,116.1-159.7
	c-0.5,0.5,0-9.7,0-9.7s31.7,1.6,33.9-9.7c3.2-45.7,15.1-60.8-14.5-101.6c-18.8-11.8-43.6,9.7-53.2,38.7
	c-4.3-5.4-34.4-80.3-72.6-96.8S499.6,168,498,165.8s-106.5-14.5-106.5-14.5l-33.9,4.8c0,0-41.6,19.4-72.6,48.4S231.9,282,231.9,282
	s6.5-50.5-29-53.2c-29,2.7-39.8,50-43.6,62.9C155.5,304.6,167.3,365.9,198,344.9z"/>
<path class="st1" d="M343.2,293.4c0,0-48.9-7.1-58.1,7.1C294.8,286.7,314.1,249,343.2,293.4z"/>
<path class="st1" d="M494,290.7c14.2-11.4,46.3-44.2,58.6,4.2C552.6,294.8,507.9,278.8,494,290.7"/>
<circle class="st2" cx="314.1" cy="340.1" r="14.5"/>
<circle class="st2" cx="527.1" cy="340.1" r="14.5"/>
<path class="st3" d="M484.4,411.7c0-22.2-27.5-46.6-61.4-46.6s-61.4,24.4-61.4,46.6s27.5,33.9,61.4,33.9S484.4,433.9,484.4,411.7z"
	/>
<path class="st4" d="M404.1,490.1c0.8,10.8,10.6,19.3,22.7,19.3s22-8.5,22.7-19.3"/>
<path class="st5" d="M207.7,289c0,0-0.7-17.7-14.5,3.2"/>
<g>
	<circle class="st3" cx="305.6" cy="392.5" r="2.9"/>
	<circle class="st3" cx="328.6" cy="392.5" r="2.9"/>
	<circle class="st3" cx="317.1" cy="409.8" r="2.9"/>
</g>
<g>
	<circle class="st3" cx="530.4" cy="392.5" r="2.9"/>
	<circle class="st3" cx="553.4" cy="392.5" r="2.9"/>
	<circle class="st3" cx="541.9" cy="409.8" r="2.9"/>
</g>
<g>
	<path class="st6" d="M332,212.3c0,0,20.1,29.4,83.2,57.6c-0.9,0.2-9-10.2-25.6-32c21.3,13.7,55.9,23.7,89.6,19.2
		c0-0.2-21.3-23.9-25.6-32c7.6,6.2-8.4,29.9,143,3.1c0,0-5.1-7.9,10.6,41.7c15.6,49.5,38.4,19.2,38.4,19.2s-24.7-32.7,19.2-38.4
		c3.1-10.4-38.4-57.6-38.4-57.6L447.2,84.2H306.4V161l12.8,32L332,212.3z"/>
	<path class="st7" d="M600.8,212.3c0,0,45.8,23.2,108.8,0c55-25.1,62.6-65,25.6-96s-100.5-29.6-160,0s-38.4,64-38.4,64L600.8,212.3z
		"/>
	<path class="st6" d="M275.1,219.9c0,0-14.2-23.7-44.8,0c-27.7,27.5-25.6,57.6-25.6,57.6s17.8-31.5,19.2-25.6s-18,44.3,0,51.2
		c-1.4-14.9,26.1-27.7,57.6-70.4s27.7-46,25.6-44.8S275.1,219.9,275.1,219.9z"/>
	<path class="st8" d="M460,20.2c-130.1-13.5-161.4,47.6-179.2,64S228.9,205.9,236,218.7c37.7,5,243.2-12.8,243.2-12.8l134.4,12.8
		C613.6,218.7,590.2,33.8,460,20.2z M332,173.9c9.5-36.5,29.2-57.6,64-57.6c51.9,1.9,76.8,70.4,76.8,70.4S322.5,210.4,332,173.9z"/>
	<path class="st8" d="M332,180.3c0,0,86.1-20.9,128-6.4c41.7,14.5,16.1,28.2,12.8,32c-9.5,8.8-170.7,31.8-236.8,12.8"/>
</g>
</svg>
