<?xml version="1.0" encoding="utf-8"?>
<!-- Generator: Adobe Illustrator 19.1.0, SVG Export Plug-In . SVG Version: 6.00 Build 0)  -->
<svg version="1.1" id="Camada_1" xmlns="http://www.w3.org/2000/svg" xmlns:xlink="http://www.w3.org/1999/xlink" x="0px" y="0px"
	 viewBox="168.8 41 621.2 477" style="enable-background:new 168.8 41 621.2 477;" xml:space="preserve">
<style type="text/css">
	.st0{fill:#808184;}
	.st1{fill:#231F20;}
	.st2{fill:#212120;}
	.st3{fill:none;stroke:#231F20;stroke-width:4;stroke-linecap:round;stroke-linejoin:round;stroke-miterlimit:10;}
	.st4{fill:#FFFFFF;}
	.st5{fill:#212120;stroke:#231F20;stroke-width:4;stroke-linecap:round;stroke-linejoin:round;stroke-miterlimit:10;}
	.st6{fill:none;stroke:#231F20;stroke-width:4;stroke-miterlimit:10;}
</style>
<g>
	<path class="st0" d="M519.4,515.5c-1.7-0.9-4.7-3.1-6.5-7.3c-1.2-2.9-4.7-4.3-10.2-4.3c-6.5,0-14.6,1.9-17.8,2.8
		c-1.8-2.2-4.1-3.4-7.1-3.4c-4,0-8.2,2.1-12,3.9c-2.5,1.2-5,2.4-6.3,2.4c-0.2,0-0.2,0-0.2,0s-0.1-0.2-0.2-0.9
		c-0.1-0.7-0.5-1.3-1.1-1.6c-1.5-0.7-2.9-1.1-4.3-1.1c-1.2,0-2.3,0.3-3.3,0.5c-0.6,0.2-1.2,0.3-1.8,0.4
		c-25.3-14.5-75.7-29.6-112.5-40.7c-19.2-5.8-34.4-10.4-40.1-13.1c-5.2-2.4-10.9-6.2-16.3-9.8c-8.9-5.9-17.4-11.5-23.8-11.5
		c-1.9,0-3.6,0.5-5,1.4c-2.7-4.5-10.8-14-35-36.8c-10.4-9.8-20.9-19.3-28-25.6c5.9,2.2,12.8,4.5,17,5c0.5,0.1,1,0.1,1.3,0.1
		c2,0,2.5-1.3,2.6-1.8c0.5-2.2-0.6-2.7-13.9-8.6c-5.1-2.3-11.1-4.9-17.4-7.9c14-1.7,36.1-8.6,37.2-9c0.9-0.3,1.4-1.1,1.4-2
		s-0.7-1.7-1.6-1.9c-0.2,0-16.4-3.6-40.8-8.2c17.1-15.5,66.7-75.8,68.9-78.6c0.2-0.3,0.4-0.7,0.4-1c2.2-18.4,0-19.5-1.1-20
		c-35.5-17.7-50.4-43.1-56.7-61.3c-5.7-16.4-5.5-30-5.3-34.3c1.6,0.5,5.7,2.3,14.9,9c0.4,0.3,0.8,0.4,1.2,0.4c0.6,0,1.1-0.2,1.5-0.7
		c0.7-0.8,0.7-1.9,0-2.7c-21.2-22.9-27.6-64.4-26.5-96.1c0.7-0.1,1.5-0.2,2.3-0.2c24.1,0,92.8,53.7,93.5,54.3
		c0.4,0.3,0.8,0.4,1.2,0.4c0.4,0,0.8-0.1,1.1-0.3c0.7-0.5,1.1-1.3,0.9-2.2c-0.1-0.3-1.2-4.9-3-10.7c10.1,16.1,25.8,41.6,35.4,57.2
		c0.3,0.5,0.8,0.8,1.3,0.9c0.1,0,0.3,0,0.4,0c0.4,0,0.8-0.1,1.2-0.4c16.5-11.9,73-44.6,107.3-53.7c0.3-0.1,0.6-0.2,0.8-0.5
		c3.9-3.6,16.2-11.4,30.9-19.5c-0.4,0.5-0.6,1.1-0.6,1.6c-0.6,4.8,8.8,10.7,30.1,22.1c3.7,2,6.9,3.7,9.2,5.1
		c0.2,0.1,0.4,0.2,0.7,0.2c36.7,6.4,102.5,30.1,130.6,40.3c7.1,2.6,11.8,4.2,13.2,4.7c0.2,0.1,0.4,0.1,0.5,0.1
		c0.6,0,1.2-0.3,1.6-0.8c0.5-0.7,0.6-1.5,0.1-2.2c-0.3-0.5-0.3-1.5,0.1-2.8c3.4-11.9,32-38.6,41.2-46.3V113c0,0.8,0.5,1.6,1.3,1.9
		c0.2,0.1,0.5,0.1,0.7,0.1c0.5,0,1.1-0.2,1.5-0.6c17.8-18.8,71-55.2,109.6-69.3c-3.4,5.1-7.9,13.2-13.4,23.5
		c-3.8,7.1-7.4,13.7-9.2,16.2c-5.1,7.1-11.5,39.7-9.3,46.7c5,18.5,2,35.2-9.1,49.7c-14.4,18.8-38.9,28.8-51,28.8c-0.3,0-0.6,0-1,0
		H691c-1,0-1.9,0.8-2,1.8c-0.1,1.1,0.7,2,1.8,2.2c32.6,3.9,54.8,34.8,72.7,59.6c8,11.1,15.1,21,22.2,27.4c-9.7,2.3-31,7.8-32.1,8.1
		c-0.7,0.2-1.2,0.7-1.4,1.4c-0.2,0.7,0,1.4,0.5,1.9c0.2,0.2,4.7,4.6,16.1,4.6c4.3,0,9-0.6,14.2-1.9c-10,7.2-31.7,20.6-47.8,30.1
		c-0.8,0.4-1.1,1.3-0.9,2.2c0.2,0.8,0.9,1.5,1.8,1.5c0.2,0,5.5,0.5,13.5,0.5c3.2,0,6.3-0.1,9.4-0.2c-18.9,23.5-50.4,37.9-75.8,49.5
		c-7.2,3.3-13.9,6.4-19.7,9.4c-13.6,4.2-21.5,10.5-31.5,18.4c-9.3,7.3-20.8,16.5-40.6,26.6C554.2,472.1,525,508.2,519.4,515.5z
		 M447.9,75c4.8-2.6,9.9-5.3,14.9-7.8C456.7,70.9,451.4,74,447.9,75z"/>
	<path class="st1" d="M779.2,49.1c-2.8,4.7-6.1,10.8-10.3,18.5c-3.8,7-7.4,13.6-9.1,16c-5.5,7.8-12,40.6-9.6,48.5
		c4.9,17.9,1.9,34-8.8,48c-13.7,18-37.9,27.9-49.4,27.9c-0.3,0-0.6,0-0.8,0c-0.1,0-0.1,0-0.2,0c-2.1,0-3.8,1.6-4,3.7
		c-0.2,2.1,1.4,4.1,3.5,4.3c31.8,3.8,53.7,34.3,71.3,58.8c7.1,9.9,13.4,18.7,19.8,25.1c-10.6,2.6-27.6,7-28.6,7.3
		c-1.4,0.4-2.5,1.4-2.9,2.8s0,2.9,1,3.9c0.5,0.5,5.5,5.2,17.5,5.2c1.8,0,3.6-0.1,5.5-0.3c-10.4,6.9-25.7,16.3-40.2,24.9
		c-1.5,0.9-2.3,2.6-1.9,4.3s1.8,3,3.6,3.1c0.2,0,5.6,0.5,13.7,0.5c1.7,0,3.3,0,5-0.1c-18.9,21.1-48.2,34.6-72.2,45.6
		c-7.1,3.3-13.8,6.3-19.6,9.3c-13.8,4.3-21.8,10.7-32,18.7c-9.2,7.3-20.6,16.3-40.3,26.4c-35.7,18.3-63.5,51.5-71.3,61.4
		c-1.4-1-3.1-2.7-4.2-5.4c-1.6-3.7-5.6-5.5-12-5.5c-6,0-13.3,1.6-17.1,2.6c-2-2.1-4.7-3.1-7.8-3.1c-4.4,0-8.9,2.2-12.9,4.1
		c-1.3,0.6-3,1.5-4.2,1.9c-0.4-0.8-1-1.5-1.9-1.9c-1.8-0.9-3.5-1.3-5.2-1.3c-1.5,0-2.7,0.3-3.7,0.6c-0.3,0.1-0.6,0.2-0.9,0.2
		c-25.7-14.5-75.7-29.5-112.3-40.6c-18.4-5.5-34.3-10.3-39.9-12.9c-5.1-2.4-10.7-6.1-16.1-9.7c-9.2-6.1-17.9-11.8-24.9-11.8
		c-1.5,0-3,0.3-4.3,0.8c-3.8-5.4-12.8-15.4-34.4-35.6c-7.3-6.8-14.6-13.5-20.7-19.1c3.1,0.9,5.9,1.7,8.1,1.9
		c0.6,0.1,1.1,0.1,1.6,0.1c2.8,0,4.2-1.8,4.5-3.3c0.8-3.8-0.7-4.5-15-10.8c-3.5-1.5-7.3-3.3-11.4-5.1c13.7-2.6,30.1-7.7,31-8
		c1.7-0.5,2.9-2.2,2.8-4c-0.1-1.8-1.4-3.3-3.1-3.7c-0.2,0-14.8-3.3-37.1-7.5c18.8-18.4,60.9-69.5,66.3-76c0.5-0.6,0.8-1.3,0.9-2.1
		c2.3-19.8-0.2-21-2.2-22c-15.4-7.7-28.2-17.5-37.9-29c-7.8-9.2-13.8-19.6-17.7-31c-4.7-13.4-5.4-24.9-5.3-30.8
		c2.2,1.1,5.9,3.3,11.8,7.6c0.7,0.5,1.5,0.8,2.3,0.8c1.1,0,2.2-0.5,3-1.3c1.4-1.5,1.3-3.9-0.1-5.4c-10.5-11.3-18-27.7-22.3-48.7
		c-3.7-17.9-4-34.5-3.8-44.3c0.1,0,0.2,0,0.4,0c19.4,0,73.2,38.9,92.3,53.9c0.7,0.6,1.6,0.9,2.5,0.9c0.8,0,1.5-0.2,2.2-0.6
		c1-0.6,1.6-1.6,1.8-2.7c9,14.4,20.1,32.4,28.6,46.4c0.6,1,1.5,1.6,2.6,1.8c0.3,0.1,0.5,0.1,0.8,0.1c0.8,0,1.7-0.3,2.3-0.8
		c16.4-11.9,72.5-44.3,106.7-53.4c0.6-0.2,1.2-0.5,1.7-0.9c3.4-3.1,13.8-9.8,27.1-17.4c1.4,5.1,10,10.6,31,21.9c3.7,2,6.9,3.7,9.2,5
		c0.4,0.2,0.9,0.4,1.3,0.5c36.5,6.4,102.2,30.1,130.2,40.2c8,2.9,11.9,4.3,13.3,4.7c0.4,0.1,0.7,0.2,1.1,0.2c1.2,0,2.4-0.6,3.2-1.6
		c1-1.3,1.1-3,0.3-4.4c0-0.6,0.1-6.4,18.7-25.9c6.9-7.2,14-13.8,18.8-18v9.8c0,1.6,1,3.1,2.5,3.7c0.5,0.2,1,0.3,1.5,0.3
		c1.1,0,2.1-0.4,2.9-1.2c9.3-9.8,29.1-24.9,50.2-38.4C745.4,65.1,763.8,55.3,779.2,49.1 M790,41c-39,12-98,52-117,72V95
		c-2,0-51,44-45,54c-7-2-98-37-144-45c-12-7-48-24-36-27c11.6-2.9,39.8-27.1,60.6-27.1c0.8,0,1.6,0,2.4,0.1c-1.1-0.4-2.4-0.6-4-0.6
		c-21.5,0-84.8,36.3-95,45.6c-34,9-90,41-108,54c0,0-41-67-45-72c5,11,9,27,9,27s-69.7-54.7-94.7-54.7c-1.6,0-3,0.2-4.3,0.7
		c-1,24,2,72,27,99c-11.1-8-15.4-9.6-17-9.6c-1,0-1,0.6-1,0.6s-7,64,63,99c2,1,0,18,0,18s-60,73-72,81c27,5,45,9,45,9
		s-29.4,9.2-42,9.2c-1.1,0-2.2-0.1-3-0.2c20.8,10.4,41.5,18.1,37.1,18.1c-0.3,0-0.6,0-1.1-0.1c-8-1-27-9-27-9s73,64,72,72
		c1.4-2.2,3.4-3.1,5.7-3.1c9.5,0,25.7,14.7,39.3,21.1c17,8,115,32,153,54c2,0,3.6-0.9,5.6-0.9c1,0,2.1,0.2,3.4,0.9
		c0.2,2,1.1,2.7,2.4,2.7c4,0,12-6.4,18.3-6.4c2.5,0,4.7,1,6.2,3.7c0,0,10.7-3.1,18.7-3.1c4,0,7.3,0.8,8.3,3.1c3,7,9,9,9,9
		s31-42,72-63s46-37,72-45c27-14,75-30,99-63c-5,0.3-9.7,0.4-13.7,0.4c-8,0-13.3-0.4-13.3-0.4s56-33,54-36c-9,3-16,4-21.3,4
		c-10.7,0-14.7-4-14.7-4s31-8,36-9c-24-18-49-84-99-90c0.3,0,0.7,0,1.1,0c20,0,76.7-27,61.9-81c-2-6,4-38,9-45S785,44,790,41L790,41
		z"/>
</g>
<path class="st2" d="M511,239c0,0,14-9,27,0c8.3,1,28.3-0.5,45,9s29.5,14.3,36,27c-0.5-1.3,0-13-9-18c8.5,4.8,16.3,7,18,18
	c-0.3-0.5,1.3-17.5-18-27c-0.3,0,3.8-3,9,0c-0.8,0.8,1.8-15.8-36-27c0.8,0.8,9.3-9.5,18-9c-1-0.3-54,0.5-54,0s0.3-7.5,9-9
	c-0.3,0.3-10-7.3-27,0S511,239,511,239z"/>
<path class="st2" d="M399.4,245.2c0,0-10.9-12.6-25.9-7.6c-8.2-1.4-27-8.4-45.7-4s-32.3,5.4-42.1,15.8c0.8-1.1,3.6-12.5,13.7-14.8
	c-9.5,2.2-17.6,2.2-22.3,12.2c0.4-0.4,3.7-17.1,24.9-20.9c0.2,0.1-2.8-3.9-8.6-2.5c0.5,0.9,2.7-15.6,42.1-15.8
	c-0.9,0.5-6.2-11.7-14.8-13.7c1,0,51.7,15.6,51.8,15.2c0.1-0.5,1.9-7.3-6.1-11.2c0.2,0.3,11.6-4.2,25.9,7.6S399.4,245.2,399.4,245.2
	z"/>
<circle class="st1" cx="362.5" cy="261.5" r="13.5"/>
<circle class="st1" cx="560.5" cy="270.5" r="13.5"/>
<path class="st3" d="M529,356c0,0,30.3,30.3,0,63s-80.1,1.4-81-9s0-36,0-36v36c0,0-5.8,25.3-36,27s-52.4-7.3-54-45"/>
<g>
	<path class="st4" d="M496.1,468.9c4.1-18.3,1.5-29-0.2-33.5c2.6-0.5,6.8-1.5,11.1-2.4c3.4-0.7,6.8-1.5,9.3-2.1
		c0.8-0.2,1.5-0.3,2.1-0.5C520.3,451,503.8,464,496.1,468.9z"/>
	<path class="st1" d="M516.5,433c0.3,9.3-3.4,18-10.9,25.7c-2.2,2.3-4.5,4.2-6.6,5.8c2.3-13.5,0.9-22.5-0.5-27.6
		c2.5-0.5,5.7-1.2,8.9-1.9C511.2,434.2,514.2,433.5,516.5,433 M520,428c-0.1,0.2-27,6-27,6s7.3,11.8,0,39
		C493,473,524.8,457.8,520,428L520,428z"/>
</g>
<g>
	<path class="st4" d="M418.2,470.2c-7.4-2.3-25-10.1-22.5-31.3c4.4-0.4,15.8-1.8,22.1-2.5C416.1,441.5,414,452.4,418.2,470.2z"/>
	<path class="st1" d="M415.1,438.7c-1.4,5.7-2.2,15,0.4,28.3c-7.5-3.1-19-10.5-17.9-26.4C401.9,440.3,409.1,439.4,415.1,438.7
		 M421,434c0,0-25,3-26.9,3c-0.1,0-0.1,0-0.1,0c-4.8,29.8,27,36,27,36C413.7,445.8,421,434,421,434L421,434z"/>
</g>
<path class="st5" d="M403,293c0,0,44.7-16,108,0c1,12-15.7,61.7-63,81C448,374,406,343.7,403,293z"/>
<path class="st6" d="M479.8,104c0,0,44.3,38,36,45s-51-23.7-45-9s54.3,61.7,36,54s-44.7-19-36,0s8.3,30.3,0,36"/>
</svg>
