<?xml version="1.0" encoding="utf-8"?>
<!-- Generator: Adobe Illustrator 19.1.0, SVG Export Plug-In . SVG Version: 6.00 Build 0)  -->
<svg version="1.1" id="Camada_1" xmlns="http://www.w3.org/2000/svg" xmlns:xlink="http://www.w3.org/1999/xlink" x="0px" y="0px"
	 viewBox="195.5 36.2 189.6 497.1" style="enable-background:new 195.5 36.2 189.6 497.1;" xml:space="preserve">
<style type="text/css">
	.st0{fill:#83503A;stroke:#5E3126;stroke-width:5;stroke-miterlimit:10;}
	.st1{fill:#CDA271;stroke:#5E3126;stroke-width:5;stroke-miterlimit:10;}
	.st2{fill:#5E3126;}
	.st3{fill:#BB8C5C;}
	.st4{fill:#82463B;}
	.st5{fill:#A47447;}
</style>
<path class="st0" d="M375.6,72.1H205c-3.9,0-7,3.2-7,7v409.6c0,12.6,12.1,23.9,31.3,31.6c16.3,6.6,37.6,10.5,61,10.5s44.8-4,61-10.5
	c19.2-7.7,31.3-19,31.3-31.6V79.2C382.6,75.3,379.4,72.1,375.6,72.1z"/>
<ellipse class="st1" cx="290.3" cy="80.9" rx="92.3" ry="42.2"/>
<g>
	<polygon class="st2" points="225.3,520.4 229.6,367.5 233.3,520.5 	"/>
</g>
<g>
	<polygon class="st2" points="272.7,531 277.1,378 280.7,531 	"/>
</g>
<g>
	<polygon class="st2" points="341.7,522.5 346.1,369.5 349.7,522.5 	"/>
</g>
<g>
	<polygon class="st2" points="365.5,107.6 361.1,260.5 357.5,107.6 	"/>
</g>
<g>
	<polygon class="st2" points="323.3,119.6 318.9,272.6 315.3,119.6 	"/>
</g>
<g>
	<polygon class="st2" points="228.4,110.5 224,263.5 220.4,110.5 	"/>
</g>
<g>
	<path class="st3" d="M287.9,104.3c-43.9-1.9-77-17.3-74-34.3s41-29.2,84.8-27.2c43.8,1.9,76.9,17.3,73.9,34.3
		C369.7,94.1,331.7,106.3,287.9,104.3z"/>
	<g>
		<path class="st4" d="M287.9,104.3c0,0-1.4-0.1-4.1-0.2c-2.7-0.2-6.6-0.4-11.5-1s-10.9-1.5-17.7-3s-14.4-3.6-22.2-7.2
			c-3.9-1.8-7.9-3.9-11.6-6.9c-1.8-1.5-3.6-3.2-5-5.2c-1.5-2-2.6-4.4-3-7c-0.1-0.7-0.1-1.3-0.1-2c0-0.3,0-0.7,0.1-1v-0.5V70v-0.1
			c0-0.1,0,0,0-0.2c0.2-0.6,0.2-1.2,0.4-1.8c0.2-0.6,0.4-1.4,0.8-2c1.1-2.5,2.9-4.6,4.8-6.5c3.9-3.8,8.7-6.5,13.6-8.8
			c10-4.5,20.9-7.2,32.2-8.8c5.6-0.8,11.3-1.3,17.1-1.6c5.7-0.2,11.5-0.3,17.3,0l4.3,0.2l4.3,0.3c2.9,0.3,5.7,0.6,8.6,1
			c5.7,0.8,11.3,1.8,16.9,3.2c11,2.8,21.8,6.6,30.8,13.2c2.2,1.6,4.3,3.5,6.1,5.6c1.8,2.1,3.3,4.6,4,7.4c0.4,1.4,0.5,2.8,0.4,4.2
			c0,0.4-0.1,0.7-0.1,1L374,77v0.3v0.2v0.1l-0.2,0.9l-0.1,0.5c-0.1,0.2-0.1,0.3-0.2,0.5c-1,2.7-2.5,4.8-4.3,6.6
			c-3.6,3.7-7.9,6.1-12.1,8.1s-8.5,3.4-12.6,4.6c-8.3,2.3-16,3.6-22.9,4.4s-12.9,1.1-17.9,1.3c-5,0.2-8.9,0-11.6,0
			C289.3,104.4,287.9,104.3,287.9,104.3z M287.9,104.3c0,0,1.4,0,4.1,0.1c2.7,0,6.6,0.1,11.6-0.1s11-0.6,17.9-1.6s14.6-2.4,22.6-5.1
			c4-1.3,8.2-2.9,12.2-5s8-4.6,11.2-8.1l0.6-0.7l0.5-0.7l0.5-0.7l0.5-0.7c0.3-0.5,0.6-1,0.8-1.5c0.3-0.5,0.4-1,0.6-1.5
			c0-0.1,0.1-0.2,0.1-0.4l0.1-0.5l0.2-0.9v-0.1c0-0.1,0,0.1,0,0v-0.2v-0.4c0-0.3,0.1-0.6,0.1-0.8c0-1.1-0.1-2.3-0.5-3.4
			c-0.7-2.2-2-4.2-3.6-6.1c-1.6-1.8-3.6-3.4-5.8-4.8c-2.1-1.4-4.4-2.7-6.8-3.9c-2.4-1.1-4.8-2.2-7.4-3.1c-5-1.9-10.3-3.4-15.7-4.6
			c-5.4-1.2-10.9-2.1-16.4-2.8c-2.8-0.4-5.6-0.6-8.4-0.9l-4.2-0.3l-4.3-0.2c-5.6-0.3-11.2-0.3-16.8-0.1c-2.8,0.1-5.6,0.3-8.4,0.5
			s-5.5,0.5-8.3,0.8c-5.5,0.6-10.9,1.6-16.2,2.8S238.3,52,233.5,54s-9.4,4.4-13,7.6c-1.8,1.6-3.4,3.5-4.4,5.5
			c-0.3,0.5-0.4,1-0.7,1.5c-0.2,0.5-0.3,1.2-0.5,1.8L215,71c0,0.3-0.1,0.6-0.1,0.8c0,0.6-0.1,1.1,0.1,1.7c0.2,2.2,1.1,4.3,2.4,6.2
			c1.2,1.9,2.8,3.5,4.5,5c3.4,3,7.2,5.2,11,7.1c7.6,3.8,15.1,6,21.8,7.8c6.7,1.7,12.7,2.6,17.6,3.3c4.9,0.6,8.8,0.9,11.5,1.1
			S287.9,104.3,287.9,104.3z"/>
	</g>
</g>
<g>
	<path class="st5" d="M292.4,78.5c-7.1-0.3-12.4-2.8-12-5.6s6.6-4.7,13.7-4.4c7.1,0.3,12.4,2.8,12,5.6
		C305.7,76.9,299.5,78.8,292.4,78.5z"/>
	<g>
		<path class="st4" d="M292.4,78.5c0,0-0.2,0-0.7,0c-0.4,0-1.1-0.1-1.9-0.1c-0.8-0.1-1.8-0.2-2.9-0.4c-1.1-0.2-2.4-0.4-3.7-0.9
			c-0.7-0.3-1.4-0.5-2.1-1s-1.5-1.1-1.8-2.4c-0.1-0.1,0-0.3-0.1-0.5V73v-0.1v-0.1l0,0c0-0.1,0,0.1,0-0.2c0-0.2,0-0.4,0.1-0.7
			c0.1-0.3,0.3-0.7,0.5-0.9c0.2-0.2,0.3-0.5,0.5-0.7c0.7-0.8,1.6-1.4,2.4-1.9c1.7-1,3.6-1.6,5.5-2s3.9-0.5,5.9-0.4l1.4,0.1
			c0.5,0.1,1,0.1,1.5,0.2c1,0.2,2,0.4,2.9,0.7c1.9,0.6,3.8,1.4,5.4,2.8c0.8,0.7,1.6,1.6,1.9,3c0.3,1.5-0.4,2.7-1.3,3.4
			c-0.8,0.7-1.6,1-2.3,1.3c-0.8,0.3-1.5,0.4-2.2,0.6c-2.8,0.5-5.1,0.5-6.7,0.5c-0.8,0-1.4,0-1.9,0C292.7,78.5,292.4,78.5,292.4,78.5
			z M292.4,78.5c0,0,0.2,0,0.7,0c0.4,0,1.1,0,1.9,0c0.8-0.1,1.8-0.1,2.9-0.4c1.1-0.2,2.3-0.6,3.6-1.1c0.6-0.3,1.2-0.6,1.8-1
			c0.6-0.4,1.1-0.9,1.4-1.4c0.3-0.4,0.3-0.9,0.1-1.1c-0.2-0.2-0.6-0.6-1.2-0.9c-1.2-0.6-2.8-0.9-4.4-1.2c-0.8-0.1-1.6-0.2-2.5-0.3
			l-1.2-0.1l-1.3-0.1c-1.7-0.1-3.4-0.1-5.1,0s-3.3,0.3-4.7,0.7c-0.7,0.2-1.4,0.4-1.9,0.7c-0.1,0.1-0.2,0.2-0.3,0.2
			c-0.1,0.1-0.1,0.1-0.2,0.1c0,0-0.1,0.1-0.1,0.2l-0.1,0.3c0.1-0.3,0-0.1,0-0.1l0,0l0,0l0,0v0.1c0,0-0.1,0.1,0,0.1
			c-0.1,0.4,0.2,1,0.6,1.4c0.4,0.5,1,0.9,1.5,1.3c1.1,0.7,2.3,1.2,3.4,1.5s2,0.5,2.8,0.7c0.8,0.1,1.4,0.2,1.9,0.2
			C292.2,78.5,292.4,78.5,292.4,78.5z"/>
	</g>
</g>
</svg>
