<?xml version="1.0" encoding="utf-8"?>
<!-- Generator: Adobe Illustrator 19.1.0, SVG Export Plug-In . SVG Version: 6.00 Build 0)  -->
<svg version="1.1" id="Camada_1" xmlns="http://www.w3.org/2000/svg" xmlns:xlink="http://www.w3.org/1999/xlink" x="0px" y="0px"
	 viewBox="324 35.9 274 520.4" style="enable-background:new 324 35.9 274 520.4;" xml:space="preserve">
<style type="text/css">
	.st0{fill:#FFF4D7;stroke:#EED99F;stroke-width:6;stroke-linecap:round;stroke-linejoin:round;stroke-miterlimit:10;}
	.st1{fill:#EED99F;}
	.st2{fill:#43101C;}
	.st3{fill:#32131A;}
</style>
<path class="st0" d="M590.6,90.5c0,0-38.1,11.5-47.5,56.2s-31.7,115.2-8.6,198.7S595,505.3,595,505.3l-38.9,8.6v21.6l-38.9,4.3
	l-13-17.3l-17.3,30.2c0,0-39.6-5.1-38.9-13s-4.3,13-4.3,13s-28.8,4.3-30.2-8.6c-1.5-12.9-21.6,2.1-21.6-8.6s-19.4-3.6-17.3-17.3
	c2.2-13.6,40.3-116,21.6-181.5c0,0,8.7-90.8-4.3-121C378.8,185.6,327,68.9,327,68.9l17.3-17.3l13,8.6V43c0,0,38.2-8,25.9,0
	c-12.3,8,12.3,5,17.3,0s48.3-5.8,47.5,0c-5.8,9.4,43.2,4.3,43.2,4.3c-18.7,20.2,47.5,4.3,47.5,4.3c-20.2,20.2,24.5,3.5,21.6,8.6
	c-7.2,14.5,34.6,13,34.6,13C569.6,84.8,590.6,90.5,590.6,90.5z"/>
<g>
	<path class="st1" d="M357.2,60.3c0,0,0.3,0.7,0.9,1.9s1.5,3.1,2.6,5.4c1.1,2.3,2.5,5.2,3.9,8.4c1.5,3.3,3.2,6.9,4.9,11
		c1.8,4,3.7,8.4,5.6,13.1c2,4.7,4,9.6,6,14.7c1,2.6,2,5.2,3.1,7.8c1,2.6,2.1,5.3,3.1,8c2,5.4,4.1,11,6.1,16.5
		c1.9,5.6,3.9,11.1,5.8,16.6c0.9,2.7,1.8,5.5,2.7,8.2c0.9,2.7,1.7,5.4,2.5,8c1.6,5.3,3.2,10.4,4.5,15.3c1.4,4.9,2.6,9.5,3.6,13.8
		s2,8.2,2.6,11.8c0.3,1.8,0.7,3.4,0.9,5c0.3,1.5,0.5,2.9,0.7,4.2c0.3,2.6,0.5,4.6,0.7,6c0.1,1.4,0.2,2.1,0.2,2.1s-0.2-0.7-0.6-2
		c-0.3-1.3-0.9-3.3-1.5-5.8c-0.3-1.2-0.7-2.6-1.2-4.1s-0.9-3.1-1.5-4.8c-1-3.4-2.3-7.2-3.7-11.4c-1.3-4.2-3-8.7-4.6-13.4
		c-1.6-4.8-3.5-9.8-5.2-15c-1.8-5.2-3.8-10.5-5.7-16c-1.9-5.4-3.9-11-5.9-16.5s-3.9-11.1-5.9-16.5c-2-5.4-3.8-10.8-5.7-16
		c-1.9-5.2-3.6-10.2-5.3-15c-1.7-4.8-3.2-9.3-4.6-13.5c-2.9-8.3-5.2-15.3-6.8-20.2C358.1,63.1,357.2,60.3,357.2,60.3z"/>
</g>
<g>
	<path class="st1" d="M378.8,48c0,0,0.3,0.8,0.9,2.2s1.4,3.5,2.5,6.2c1,2.7,2.3,5.9,3.7,9.6c1.4,3.7,3,7.9,4.7,12.5
		s3.5,9.6,5.4,14.9s3.9,10.9,5.9,16.7s4.1,11.8,6.1,17.9c2,6.1,4.1,12.3,6.1,18.5s4,12.4,6,18.6c2,6.1,3.8,12.2,5.6,18
		c1.8,5.8,3.5,11.5,5.1,16.9s3.1,10.5,4.4,15.2c1.4,4.7,2.5,9,3.6,12.9c1.1,3.8,1.9,7.2,2.7,10c0.7,2.8,1.3,5,1.7,6.4
		c0.4,1.5,0.6,2.3,0.6,2.3s-0.3-0.8-0.9-2.2s-1.4-3.5-2.5-6.2c-1-2.7-2.3-5.9-3.7-9.6c-1.4-3.7-3-7.9-4.7-12.5s-3.5-9.6-5.4-14.9
		c-1.9-5.3-3.9-10.9-5.9-16.7s-4.1-11.8-6.1-17.9c-2-6.1-4.1-12.3-6.1-18.5s-4-12.4-5.9-18.6c-2-6.1-3.8-12.2-5.6-18
		c-1.8-5.8-3.5-11.5-5.1-16.9s-3.1-10.5-4.4-15.2c-1.4-4.7-2.5-9-3.6-12.9c-1.1-3.8-1.9-7.2-2.7-10c-0.7-2.8-1.3-5-1.7-6.4
		C379,48.8,378.8,48,378.8,48z"/>
</g>
<g>
	<path class="st1" d="M443.7,43.7c0,0-0.1,0.8-0.3,2.2c-0.2,1.5-0.5,3.6-0.9,6.3c-0.3,2.7-0.8,6-1.2,9.8c-0.4,3.8-0.9,8-1.3,12.7
		c-0.5,4.6-0.8,9.7-1.3,15c-0.2,2.7-0.4,5.4-0.6,8.2c-0.1,2.8-0.4,5.7-0.5,8.6c-0.3,5.8-0.6,11.8-0.7,18c-0.1,3.1-0.2,6.1-0.3,9.2
		c0,3.1,0,6.2,0,9.3v4.7v2.3l0.1,2.3c0.1,3.1,0.1,6.2,0.2,9.2c0,6.1,0.4,12.1,0.7,18c0.2,5.8,0.8,11.4,1.1,16.8
		c0.2,2.7,0.4,5.3,0.6,7.8c0.3,2.5,0.5,4.9,0.8,7.2c0.2,2.3,0.5,4.6,0.7,6.7c0.1,1.1,0.2,2.1,0.3,3.1c0.1,1,0.2,2,0.3,2.9
		c0.6,3.8,1,7.1,1.3,9.8c0.4,2.7,0.6,4.9,0.8,6.3c0.2,1.5,0.3,2.2,0.3,2.2s-0.2-0.8-0.6-2.2s-1-3.5-1.6-6.2
		c-0.7-2.7-1.5-5.9-2.4-9.6c-0.9-3.7-1.6-8-2.5-12.6c-0.4-2.3-0.9-4.7-1.4-7.2c-0.4-2.5-0.7-5.1-1.1-7.8c-0.7-5.4-1.6-11-1.9-16.9
		c-0.2-2.9-0.5-5.9-0.7-9c-0.1-1.5-0.3-3-0.3-4.6c-0.1-1.5-0.1-3.1-0.2-4.6c-0.1-3.1-0.2-6.2-0.3-9.3l-0.1-2.4v-2.4v-4.7
		c0-3.1,0.1-6.3,0.1-9.4c0.1-3.1,0.3-6.2,0.4-9.3c0.2-6.2,0.8-12.3,1.3-18.1c0.2-2.9,0.6-5.8,0.9-8.6c0.4-2.8,0.6-5.6,1-8.2
		c0.8-5.3,1.5-10.4,2.4-15c0.4-2.3,0.8-4.5,1.2-6.6c0.4-2.1,0.9-4.1,1.3-6c0.8-3.7,1.6-7,2.3-9.6C442.7,46.7,443.7,43.7,443.7,43.7z
		"/>
</g>
<g>
	<path class="st1" d="M491.2,47.3c0,0-0.7,0.5-1.8,1.5c-1.1,1-2.6,2.7-4.4,4.9c-1.7,2.2-3.6,5.1-5.5,8.5c-1.9,3.4-3.7,7.5-5.4,11.9
		c-1.7,4.5-3.2,9.5-4.5,14.8c-0.3,1.3-0.6,2.7-0.9,4.1s-0.6,2.8-0.9,4.2c-0.3,1.4-0.5,2.9-0.8,4.3c-0.3,1.5-0.5,2.9-0.7,4.4
		c-0.5,3-0.8,6-1.2,9.1c-0.2,1.5-0.3,3.1-0.5,4.6c-0.1,1.6-0.3,3.1-0.4,4.7c-0.3,3.2-0.4,6.3-0.6,9.5c-0.1,3.2-0.2,6.4-0.3,9.6
		c0,3.2-0.1,6.4-0.1,9.6c0,3.2,0.1,6.4,0.1,9.6c0,1.6,0.1,3.2,0.1,4.7c0,1.6,0.1,3.1,0.1,4.7c0.1,1.6,0.1,3.1,0.2,4.6
		s0.2,3.1,0.3,4.6c0.2,3,0.3,6,0.5,8.9s0.4,5.8,0.6,8.5c0.2,2.8,0.4,5.5,0.7,8.1c0.2,2.6,0.4,5.1,0.6,7.6c0.5,4.8,0.9,9.3,1.3,13.2
		s0.8,7.4,1.1,10.2c0.3,2.8,0.5,5.1,0.7,6.6c0.1,1.5,0.2,2.3,0.2,2.3s-0.2-0.8-0.6-2.3c-0.3-1.5-0.9-3.7-1.5-6.4
		c-0.6-2.8-1.5-6.1-2.2-10s-1.7-8.3-2.4-13.1c-0.7-4.8-1.7-10-2.3-15.6c-0.3-2.8-0.7-5.6-1.1-8.6c-0.4-2.9-0.6-5.9-0.9-9
		c-0.1-1.5-0.3-3.1-0.4-4.6c-0.1-1.6-0.2-3.1-0.3-4.7c-0.2-3.1-0.5-6.3-0.5-9.6c-0.1-3.2-0.2-6.5-0.2-9.7c0-3.3,0-6.5,0.1-9.8
		s0.3-6.6,0.4-9.8c0.3-3.3,0.5-6.5,0.8-9.7c0.6-6.4,1.5-12.7,2.7-18.8c1-6.1,2.6-11.9,4.2-17.3c1.7-5.4,3.6-10.4,5.7-14.9
		s4.4-8.4,6.6-11.8c2.2-3.4,4.5-6,6.5-8.1c2-2.1,3.8-3.5,5-4.4C490.4,47.7,491.2,47.3,491.2,47.3z"/>
</g>
<g>
	<path class="st1" d="M538.7,51.6c0,0-0.7,0.5-2,1.4s-3.1,2.4-5.4,4.4c-2.2,2-4.8,4.6-7.5,7.7s-5.6,6.8-8.4,11.1
		c-2.8,4.2-5.6,9-8.2,14.2c-1.4,2.6-2.5,5.4-3.7,8.1c-0.6,1.4-1.1,2.9-1.7,4.3c-0.3,0.7-0.6,1.5-0.9,2.2s-0.5,1.5-0.8,2.2
		c-0.5,1.5-1,3-1.5,4.5c-0.4,1.6-0.9,3.1-1.4,4.7s-0.9,3.1-1.3,4.8c-0.4,1.6-0.8,3.2-1.2,4.8c-0.4,1.6-0.7,3.3-1,4.9
		c-0.3,1.7-0.6,3.3-1,5c-0.5,3.4-1.1,6.7-1.5,10.1l-0.6,5.1c-0.2,1.7-0.4,3.4-0.5,5.1c-0.1,1.7-0.2,3.4-0.4,5.1
		c-0.1,1.7-0.3,3.4-0.3,5c-0.1,1.7-0.1,3.3-0.2,5s-0.2,3.3-0.2,5c0,3.3,0,6.6,0,9.8s0.2,6.4,0.3,9.4c0.1,1.5,0.1,3.1,0.2,4.6
		s0.2,3,0.3,4.5c0.2,2.9,0.4,5.8,0.6,8.6c0.3,2.8,0.5,5.4,0.7,8s0.5,5,0.8,7.4c0.3,2.3,0.5,4.6,0.8,6.6c0.3,2.1,0.5,4,0.7,5.8
		c0.3,1.8,0.5,3.5,0.7,4.9c0.4,3,0.7,5.3,0.9,6.9c0.2,1.6,0.3,2.5,0.3,2.5s-0.2-0.8-0.7-2.4c-0.4-1.6-1-3.9-1.8-6.8
		c-0.4-1.5-0.8-3.1-1.2-4.9c-0.5-1.8-0.8-3.7-1.3-5.8c-0.8-4.1-1.9-8.8-2.7-13.9c-0.4-2.6-0.9-5.2-1.3-8s-0.7-5.7-1.1-8.6
		c-0.2-1.5-0.4-3-0.5-4.5c-0.2-1.5-0.3-3.1-0.4-4.6c-0.1-1.6-0.2-3.1-0.4-4.7c-0.1-1.6-0.3-3.2-0.3-4.8c-0.1-3.3-0.2-6.6-0.3-9.9
		c0-3.4,0.1-6.8,0.1-10.2c0-1.7,0.1-3.4,0.2-5.2c0.1-1.7,0.2-3.5,0.3-5.2c0.1-1.7,0.3-3.5,0.5-5.2l0.6-5.2c0.4-3.5,1.1-6.9,1.6-10.4
		c0.4-1.7,0.7-3.4,1.1-5.1c0.4-1.7,0.7-3.4,1.1-5.1c0.9-3.3,1.6-6.7,2.8-9.9c0.5-1.6,1-3.2,1.5-4.8c0.6-1.6,1.2-3.1,1.7-4.7
		c0.3-0.8,0.6-1.5,0.9-2.3c0.3-0.7,0.6-1.5,1-2.2c0.6-1.5,1.3-3,1.9-4.4c1.4-2.8,2.7-5.6,4.3-8.2c1.4-2.7,3-5.1,4.5-7.5
		c0.8-1.2,1.6-2.3,2.4-3.4c0.4-0.6,0.8-1.1,1.2-1.7c0.4-0.5,0.8-1.1,1.2-1.6c1.6-2.1,3.2-4,4.8-5.8c1.6-1.7,3.2-3.4,4.7-4.9
		c3.1-3,6-5.3,8.4-7.1c2.5-1.8,4.5-3,5.9-3.8C537.9,52,538.7,51.6,538.7,51.6z"/>
</g>
<g>
	<path class="st1" d="M560.3,60.3c0,0-2.2,2.3-5.6,6.6c-1.7,2.1-3.7,4.8-6,7.9c-2.2,3.1-4.6,6.7-7.1,10.6c-0.6,1-1.2,2-1.9,3
		c-0.6,1-1.2,2.1-1.9,3.2c-1.3,2.2-2.5,4.4-3.8,6.8c-1.2,2.4-2.6,4.8-3.7,7.3c-0.6,1.3-1.2,2.5-1.9,3.8c-0.6,1.3-1.2,2.6-1.8,3.9
		s-1.2,2.7-1.7,4c-0.6,1.4-1.1,2.7-1.7,4.1c-0.5,1.4-1.1,2.8-1.6,4.2c-0.3,0.7-0.5,1.4-0.8,2.1s-0.5,1.4-0.8,2.2
		c-0.5,1.4-1,2.9-1.5,4.3c-0.5,1.4-0.9,2.9-1.4,4.4c-0.4,1.5-0.9,2.9-1.3,4.4l-1.2,4.5c-0.9,3-1.5,6-2.2,9s-1.2,6-1.8,9
		c-0.3,1.5-0.5,3-0.7,4.5s-0.5,3-0.7,4.5c-0.4,3-0.7,5.9-1.1,8.8c-0.5,5.8-1,11.4-1.2,16.8c-0.1,1.3-0.1,2.7-0.2,4
		c0,1.3,0,2.6,0,3.8c0,1.3,0,2.5,0,3.7s0,2.4,0,3.6c0.2,4.7,0.2,9,0.5,12.8s0.3,7.2,0.7,9.9c0.3,2.7,0.4,4.9,0.6,6.4
		c0.1,1.5,0.2,2.3,0.2,2.3s-0.2-0.8-0.5-2.2s-0.8-3.6-1.4-6.3s-1.2-6-1.8-9.8c-0.7-3.8-1.1-8.1-1.6-12.9c-0.1-1.2-0.2-2.4-0.3-3.6
		c-0.1-1.2-0.2-2.5-0.2-3.8c-0.1-1.3-0.1-2.6-0.2-3.9c-0.1-1.3,0-2.7-0.1-4c0-1.4,0-2.7,0-4.1c0-0.7,0-1.4,0-2.1
		c0-0.7,0-1.4,0.1-2.1c0-1.4,0.1-2.9,0.2-4.3c0.1-1.5,0.1-2.9,0.2-4.4c0.3-3,0.5-6,0.8-9.1c0.4-3,0.7-6.1,1.3-9.2
		c0.3-1.5,0.6-3.1,0.8-4.7c0.3-1.6,0.5-3.1,0.9-4.7c0.7-3.1,1.3-6.2,2.2-9.3l1.3-4.6c0.4-1.5,1-3,1.4-4.6c0.5-1.5,0.9-3,1.5-4.5
		c0.5-1.5,1.1-3,1.6-4.4c1-3,2.3-5.8,3.5-8.7c0.6-1.4,1.3-2.8,1.9-4.2c0.6-1.4,1.2-2.8,1.9-4.1c0.7-1.3,1.3-2.7,2-4s1.4-2.6,2.1-3.8
		c1.4-2.5,2.8-4.9,4.2-7.3c2.9-4.6,5.8-8.9,8.6-12.7c0.7-1,1.4-1.9,2.1-2.8c0.7-0.9,1.4-1.8,2.1-2.6c1.4-1.7,2.7-3.2,4-4.7
		c2.5-2.9,4.9-5.3,6.9-7.2c2-1.9,3.6-3.4,4.7-4.3C559.7,60.7,560.3,60.3,560.3,60.3z"/>
</g>
<g>
	<path class="st1" d="M594.9,73.2c0,0-0.8,0.1-2.1,0.3c-1.4,0.2-3.4,0.8-5.9,1.5c-2.5,0.8-5.4,2-8.6,3.6c-3.2,1.7-6.6,3.8-10.2,6.5
		c-3.5,2.7-6.9,6-10.3,9.7c-1.6,1.9-3.3,3.9-4.8,6.1c-1.6,2.1-3.1,4.4-4.6,6.7c-0.7,1.2-1.4,2.4-2.1,3.6c-0.7,1.2-1.4,2.4-2,3.7
		c-1.2,2.5-2.6,5.1-3.7,7.8c-0.6,1.3-1.2,2.7-1.7,4c-0.5,1.4-1,2.7-1.5,4.1c-1.1,2.7-1.9,5.6-2.8,8.4c-1,2.8-1.6,5.7-2.4,8.5
		c-0.8,2.8-1.4,5.7-2.1,8.6c-0.7,2.8-1.2,5.7-1.7,8.5s-1.1,5.6-1.5,8.4c-0.4,2.8-0.8,5.5-1.2,8.2c-0.3,2.7-0.6,5.3-0.9,7.9
		c-0.1,1.3-0.3,2.5-0.4,3.8c-0.1,1.2-0.2,2.5-0.3,3.7c-0.2,2.4-0.4,4.7-0.6,7c-0.2,2.2-0.3,4.4-0.4,6.4c-0.1,2-0.3,4-0.4,5.8
		c-0.3,3.7-0.4,6.9-0.5,9.5s-0.3,4.7-0.3,6.1c-0.1,1.4-0.1,2.2-0.1,2.2s-0.1-0.8-0.2-2.2c-0.1-1.4-0.3-3.5-0.5-6.1s-0.5-5.8-0.6-9.5
		s-0.3-7.8-0.3-12.4c0-2.3,0.1-4.6,0.1-7.1c0-1.2,0-2.5,0.1-3.7c0.1-1.3,0.1-2.5,0.2-3.8c0.2-2.6,0.3-5.3,0.5-8s0.6-5.5,0.9-8.3
		c0.2-1.4,0.3-2.9,0.5-4.3c0.2-1.4,0.4-2.9,0.7-4.3c0.2-1.5,0.4-2.9,0.7-4.4c0.2-1.5,0.6-2.9,0.9-4.4c0.6-2.9,1.1-5.9,2-8.9
		c0.8-2.9,1.5-5.9,2.5-8.8c1-2.9,1.9-5.8,3-8.7c0.6-1.4,1.1-2.8,1.7-4.3c0.6-1.4,1.2-2.8,1.9-4.2c2.4-5.6,5.5-10.7,8.7-15.6
		c3.2-4.8,6.8-9.1,10.6-12.9s7.7-6.9,11.6-9.5c3.9-2.5,7.7-4.4,11.2-5.8s6.6-2.2,9.3-2.7c2.6-0.5,4.7-0.7,6.1-0.7
		C594.1,73.2,594.9,73.2,594.9,73.2z"/>
</g>
<g>
	<path class="st1" d="M556,513.9c0,0-0.3-0.8-0.8-2.4s-1.4-3.8-2.3-6.8c-1-2.9-2.2-6.5-3.5-10.6s-2.8-8.7-4.3-13.8
		c-1.5-5.1-3.2-10.5-4.9-16.4c-1.7-5.8-3.5-11.9-5.2-18.3s-3.6-13-5.3-19.7s-3.4-13.6-5.1-20.4c-1.6-6.9-3.3-13.7-4.7-20.5
		c-0.8-3.4-1.5-6.8-2.2-10.1c-0.7-3.3-1.3-6.6-2-9.9c-1.3-6.5-2.4-12.8-3.5-18.8c-1-6-1.9-11.7-2.6-16.9c-0.7-5.3-1.2-10.1-1.5-14.4
		c-0.4-4.3-0.5-8.1-0.5-11.2c0-1.5,0-2.9,0.1-4.1s0.1-2.2,0.3-3c0.3-1.6,0.4-2.5,0.4-2.5s0,0.9,0,2.5c-0.1,0.8,0,1.8,0.1,3
		s0.1,2.6,0.3,4.1c0.3,3,0.9,6.7,1.6,10.9c0.7,4.2,1.6,8.9,2.7,14.1c0.5,2.6,1.1,5.3,1.7,8c0.6,2.8,1.2,5.6,1.9,8.6
		c0.6,2.9,1.3,6,2.1,9.1c0.7,3.1,1.4,6.2,2.2,9.5c1.5,6.4,3.1,13,4.7,19.8c1.6,6.7,3.3,13.6,4.9,20.4c3.3,13.7,6.6,27.4,9.6,40.2
		c1.6,6.4,3,12.6,4.4,18.5s2.7,11.5,3.9,16.6s2.3,9.9,3.2,14.1s1.7,7.8,2.4,10.9c0.6,3,1.2,5.4,1.5,7
		C555.8,513.1,556,513.9,556,513.9z"/>
</g>
<g>
	<path class="st1" d="M517.1,539.9c0,0-0.4-3.6-1.2-10c-0.4-3.2-0.8-7-1.3-11.4s-1.1-9.4-1.7-14.8c-1.2-10.9-2.7-23.6-4.2-37.1
		c-0.8-6.8-1.6-13.8-2.4-20.9s-1.7-14.4-2.6-21.6s-1.8-14.4-2.8-21.5s-1.9-14.1-3-20.8c-1.1-6.7-2.1-13.2-3.2-19.4
		c-1.1-6.1-2.3-11.9-3.5-17.2c-1.2-5.3-2.4-10.1-3.7-14.4c-1.3-4.2-2.6-7.8-3.9-10.7c-1.3-2.9-2.6-5-3.6-6.4
		c-0.5-0.7-0.9-1.2-1.2-1.5c-0.3-0.3-0.4-0.5-0.4-0.5s0.2,0.1,0.5,0.4s0.9,0.7,1.4,1.3c1.2,1.2,2.8,3.2,4.4,6.1
		c3.3,5.6,6.8,14.2,9.9,24.7c1.6,5.3,3.1,11.1,4.5,17.2s2.8,12.6,4,19.4s2.5,13.7,3.5,20.9c1.1,7.1,2.1,14.4,3,21.6
		c0.9,7.3,1.7,14.5,2.4,21.7c0.8,7.2,1.3,14.2,1.9,21s1,13.4,1.4,19.7c0.4,6.3,0.7,12.2,0.9,17.7c0.3,5.5,0.4,10.5,0.6,14.9
		c0.1,4.5,0.2,8.3,0.2,11.5c0.1,3.2,0,5.7,0,7.4C517.1,538.9,517.1,539.9,517.1,539.9z"/>
</g>
<g>
	<path class="st1" d="M504.1,522.6c0,0-0.3-0.8-0.7-2.3c-0.4-1.5-1-3.7-1.7-6.4c-0.7-2.8-1.6-6.2-2.5-10.1s-2-8.3-3.1-13.1
		c-1.1-4.8-2.3-10-3.4-15.5c-1.2-5.5-2.4-11.3-3.6-17.4c-1.2-6-2.5-12.2-3.6-18.6c-1.2-6.3-2.4-12.8-3.5-19.2
		c-1.1-6.5-2.3-12.9-3.3-19.3c-1.1-6.4-2-12.7-2.9-18.7c-0.9-6.1-1.7-12-2.5-17.6s-1.4-10.9-1.9-15.8c-0.3-2.4-0.5-4.8-0.7-7
		s-0.4-4.4-0.6-6.4s-0.3-3.9-0.4-5.6s-0.2-3.3-0.2-4.8c-0.1-1.4-0.1-2.7-0.1-3.8c0-1.1,0-2.1,0.1-2.8c0-0.8,0.1-1.4,0.2-1.8
		c0-0.4,0.1-0.6,0.1-0.6s0,0.2,0,0.6s0,1,0.1,1.7c0.1,0.8,0.2,1.7,0.3,2.8c0.2,1.1,0.3,2.4,0.6,3.8c0.5,2.8,1.1,6.3,1.8,10.2
		c0.7,3.9,1.5,8.3,2.4,13.2c0.9,4.8,1.9,10.1,2.9,15.6s2.1,11.4,3.3,17.4c1.1,6,2.3,12.3,3.4,18.6c1.1,6.3,2.3,12.8,3.5,19.2
		c1.1,6.5,2.2,12.9,3.3,19.3c1.1,6.3,2.1,12.6,3.1,18.7s1.9,11.9,2.8,17.5s1.7,10.8,2.4,15.7c0.8,4.9,1.4,9.3,1.9,13.3
		c0.6,4,1,7.4,1.4,10.3c0.4,2.8,0.7,5.1,0.9,6.6c0.1,0.8,0.2,1.3,0.2,1.7C504.1,522.4,504.1,522.6,504.1,522.6z"/>
</g>
<g>
	<path class="st1" d="M486.9,552.8c0,0-0.3-0.9-0.9-2.7s-1.5-4.4-2.6-7.7s-2.4-7.4-3.9-12s-3.1-9.9-4.8-15.6
		c-1.7-5.7-3.6-12-5.4-18.6s-3.8-13.6-5.7-20.9c-1.9-7.3-3.8-14.8-5.6-22.4c-1.8-7.7-3.6-15.5-5.3-23.3c-1.7-7.8-3.3-15.7-4.7-23.4
		c-1.5-7.7-2.8-15.4-3.9-22.8c-1.2-7.4-2.1-14.6-2.9-21.5c-0.8-6.8-1.3-13.4-1.6-19.4c-0.6-12-0.2-22.2,1-29.1
		c0.1-0.9,0.3-1.7,0.5-2.5s0.3-1.5,0.5-2.1c0.2-0.7,0.4-1.3,0.5-1.8c0.2-0.5,0.4-1,0.5-1.5c0.3-0.9,0.7-1.5,0.8-2
		c0.2-0.4,0.3-0.7,0.3-0.7s-0.1,0.2-0.2,0.7s-0.4,1.1-0.6,2c-0.5,1.8-0.9,4.5-1.2,8c-0.3,3.5-0.3,7.7-0.1,12.5
		c0.2,4.8,0.7,10.3,1.3,16.2c0.7,5.9,1.6,12.3,2.6,19.1c1.1,6.8,2.3,13.8,3.6,21.2c1.3,7.3,2.9,14.9,4.4,22.6s3.2,15.5,4.9,23.3
		c1.7,7.8,3.4,15.6,5.1,23.2c1.7,7.7,3.5,15.2,5.1,22.5c3.4,14.6,6.5,28.2,9.3,39.8c2.7,11.7,5,21.4,6.5,28.2
		C486,548.9,486.9,552.8,486.9,552.8z"/>
</g>
<g>
	<path class="st1" d="M448,539.9c0,0-0.3-0.9-0.7-2.6c-0.5-1.7-1.2-4.2-2-7.4s-1.8-7.1-2.9-11.5c-1.1-4.5-2.3-9.5-3.5-15
		s-2.6-11.5-3.9-17.8s-2.7-13-3.9-20c-1.3-6.9-2.6-14.1-3.8-21.4c-1.2-7.3-2.4-14.8-3.4-22.2c-1-7.5-2-14.9-2.8-22.3
		c-0.9-7.4-1.5-14.6-2.1-21.7c-0.6-7-0.9-13.9-1.1-20.4s-0.2-12.6,0-18.3c0.2-5.7,0.6-10.9,1.3-15.5c0.6-4.6,1.5-8.5,2.5-11.7
		s2.2-5.6,3.2-7c0.5-0.8,0.9-1.3,1.2-1.6c0.3-0.3,0.4-0.5,0.4-0.5s-0.1,0.2-0.4,0.6c-0.2,0.4-0.6,0.9-1,1.7c-0.4,0.8-0.8,1.8-1.2,3
		c-0.2,0.6-0.4,1.3-0.6,2s-0.3,1.5-0.5,2.2c-0.7,3.2-1.1,7.1-1.4,11.6c-0.2,4.5-0.3,9.7-0.1,15.3c0.2,5.6,0.5,11.7,1,18.1
		s1.2,13.2,1.9,20.1c0.7,7,1.7,14.2,2.6,21.5s1.9,14.7,3,22.2c1,7.4,2.1,14.8,3.2,22.1c1.1,7.3,2.2,14.5,3.3,21.4
		c2.2,13.9,4.2,26.9,6,38c1.7,11.1,3.2,20.4,4.2,26.9C447.4,536.1,448,539.9,448,539.9z"/>
</g>
<g>
	<path class="st1" d="M387.5,531.9c0,0,0.5-3.5,1.4-9.7c0.5-3.1,1-6.8,1.7-11.1c0.7-4.3,1.4-9.1,2.2-14.4
		c1.7-10.5,3.6-22.8,5.6-35.9c1-6.6,2.1-13.4,3.2-20.3s2.2-13.9,3.2-20.9s2.1-14,3.1-20.9s2-13.7,2.8-20.3c0.8-6.6,1.6-13,2.3-19
		c0.6-6,1.2-11.8,1.6-17.1c0.4-5.3,0.7-10.1,0.8-14.4c0.1-4.3,0-8.1-0.2-11.1c-0.2-3.1-0.6-5.5-1-7.1c-0.2-0.8-0.4-1.4-0.5-1.8
		s-0.2-0.6-0.2-0.6s0.1,0.2,0.3,0.6c0.2,0.4,0.5,1,0.7,1.8c0.6,1.6,1.3,3.9,1.9,7s1.1,6.9,1.3,11.2c0.3,4.4,0.4,9.3,0.4,14.6
		c0,5.4-0.2,11.2-0.6,17.3c-0.4,6.1-0.8,12.6-1.5,19.2s-1.4,13.5-2.3,20.5s-1.9,14-2.9,21c-1.1,7-2.3,14.1-3.4,21
		s-2.5,13.7-3.7,20.2c-1.2,6.6-2.5,12.9-3.8,18.9c-1.2,6-2.5,11.6-3.7,16.8c-1.2,5.2-2.3,10-3.3,14.2c-1,4.2-2,7.9-2.7,10.9
		c-0.8,3-1.4,5.4-1.9,7C387.7,531,387.5,531.9,387.5,531.9z"/>
</g>
<path class="st2" d="M532.3,229.5c-3.6-1.4-63.4,21.5-138.3,0c-11.5,8-4.3,73.4-4.3,73.4s64.1,41.7,116.7,8.6
	c18-15.8,21.6-21.6,21.6-21.6L532.3,229.5z"/>
<path class="st3" d="M387.5,238.1c0,0-8.6,19.2-4.3,21.6c4.3,2.4,142.1,23.5,151.2,0c-0.5-17.3,7.2-20.2,0-21.6
	S480.6,271.2,387.5,238.1z"/>
<path class="st3" d="M384.4,268.4c0,0-8.6,19.2-4.3,21.6c4.3,2.4,142.1,23.5,151.2,0c-0.5-17.3,7.2-20.2,0-21.6
	C524.1,266.9,477.5,301.5,384.4,268.4z"/>
</svg>
