<?xml version="1.0" encoding="utf-8"?>
<!-- Generator: Adobe Illustrator 19.1.0, SVG Export Plug-In . SVG Version: 6.00 Build 0)  -->
<svg version="1.1" id="Camada_1" xmlns="http://www.w3.org/2000/svg" xmlns:xlink="http://www.w3.org/1999/xlink" x="0px" y="0px"
	 viewBox="265.7 105.6 430 348" style="enable-background:new 265.7 105.6 430 348;" xml:space="preserve">
<style type="text/css">
	.st0{fill:#F8B3AD;}
	.st1{fill:#E29D9A;}
	.st2{fill:#FACBCA;}
	.st3{fill:#404041;}
	.st4{fill:none;stroke:#231F20;stroke-width:3;stroke-linecap:round;stroke-miterlimit:10;}
	.st5{fill:#7A1315;}
	.st6{fill:#231F20;}
</style>
<path class="st0" d="M353,184.3c0,0,13.3-26-41.3-52c-38-24.7-46-26.7-46-26.7s9.3,32,10,78.7c10,45.3,32.3,44.7,32.3,44.7
	s47.7-14,49.7-16S353,184.3,353,184.3z"/>
<path class="st0" d="M617.7,257c0,0,31.3-8.7,38-14.7s33.3-36,23.3-64c4-18,16.7-36.7,16.7-36.7s-38,19.3-64.7,30.7
	c-26.7,11.3-39.3,24-45.3,45.3c-5.3,21.3,3.3,56.7,3.3,56.7L617.7,257z"/>
<path class="st1" d="M318,214.3c0,0-9.3,6.7-12-29.7c-2.3-16.3-5.3-25.7-5.3-25.7s36.3,14.7,34.3,40.3S318,214.3,318,214.3z"/>
<path class="st1" d="M609.7,240.3c0,0,16.7-10,20.7-17s2.7-19,2.7-19s-21.1,4.7-30.7,18C592.7,235.7,609.7,240.3,609.7,240.3z"/>
<ellipse class="st2" cx="453.5" cy="305.3" rx="179.5" ry="148.3"/>
<circle class="st3" cx="354.8" cy="279.8" r="12.3"/>
<circle class="st3" cx="535.3" cy="295.3" r="12.3"/>
<ellipse class="st0" cx="436.5" cy="348.9" rx="74.5" ry="53.6"/>
<path class="st4" d="M419.1,417.5c0.5,7.4,7.2,13.2,15.3,13.2c8.1,0,14.8-5.8,15.3-13.2"/>
<ellipse class="st5" cx="402.7" cy="353.5" rx="8" ry="8.2"/>
<ellipse class="st5" cx="467.7" cy="353.5" rx="8" ry="8.2"/>
<g>
	<path class="st6" d="M455.1,108c0,0,1.7,3.4,3.9,8.6c2.2,5.2,4.8,12.4,6.6,19.8c0.4,1.8,0.8,3.7,1.2,5.6c0.3,1.9,0.6,3.7,0.7,5.5
		c0.1,0.9,0.1,1.8,0.1,2.6c0,0.4,0,0.9,0,1.3c0,0.4,0,0.8-0.1,1.3c0,0.8-0.1,1.6-0.2,2.4c-0.1,0.8-0.2,1.5-0.3,2.2
		c-0.1,0.4-0.1,0.7-0.2,1s-0.2,0.7-0.3,1c-0.2,0.6-0.3,1.2-0.5,1.8s-0.4,1.1-0.6,1.5c-0.2,0.5-0.4,0.9-0.6,1.3
		c-0.3,0.8-0.8,1.3-1,1.7s-0.4,0.6-0.4,0.6l-0.2-0.1c0,0,0.1-0.2,0.2-0.6c0.1-0.4,0.4-1,0.6-1.8s0.5-1.7,0.7-2.8
		c0.1-0.5,0.2-1.1,0.3-1.8c0.1-0.6,0.2-1.3,0.2-2c0.1-0.7,0.1-1.4,0.1-2.2c0-0.7,0.1-1.5,0.1-2.3s0-1.6,0-2.4c0-0.8-0.1-1.7-0.1-2.6
		c-0.1-1.7-0.3-3.5-0.5-5.4c-0.2-1.8-0.5-3.7-0.9-5.5c-1.4-7.4-3.8-14.5-5.6-19.8c-1.9-5.3-3.5-8.8-3.5-8.8L455.1,108z"/>
</g>
<g>
	<path class="st6" d="M495.7,119.7c0,0-0.5,0.5-1.3,1.5c-0.4,0.5-0.9,1.1-1.4,1.9c-0.3,0.4-0.5,0.8-0.8,1.2
		c-0.3,0.4-0.6,0.9-0.9,1.3c-0.6,0.9-1.2,2-1.8,3.1c-0.5,1.1-1.2,2.3-1.7,3.6c-0.3,0.6-0.6,1.3-0.8,1.9c-0.2,0.7-0.5,1.3-0.7,2
		c-0.5,1.3-0.9,2.8-1.3,4.2s-0.7,2.9-1,4.3c-0.2,1.4-0.4,2.8-0.6,4.2s-0.3,2.7-0.5,3.9c0,0.3-0.1,0.6-0.1,0.9c0,0.3,0,0.6,0,0.9
		c0,0.6-0.1,1.2-0.1,1.7c-0.1,1.1-0.2,2.1-0.2,3s0,1.7-0.1,2.3c-0.1,1.3-0.1,2.1-0.1,2.1h-0.2c0,0-0.2-0.7-0.4-2
		c-0.1-0.6-0.3-1.4-0.4-2.3c-0.2-0.9-0.2-1.9-0.2-3.1c0-1.1-0.2-2.4,0-3.7c0.1-1.3,0.1-2.7,0.3-4.1c0.3-1.4,0.5-2.8,0.9-4.3
		c0.4-1.4,0.8-2.9,1.3-4.3c0.5-1.4,1-2.9,1.6-4.2c0.3-0.7,0.6-1.4,0.9-2s0.6-1.3,1-1.9c0.6-1.3,1.3-2.4,2-3.5c0.7-1.1,1.3-2.1,2-3
		c2.6-3.6,4.9-5.6,4.9-5.6L495.7,119.7z"/>
</g>
<g>
	<path class="st6" d="M517.7,134.1c0,0-0.2,0.1-0.4,0.3c-0.3,0.2-0.7,0.5-1.2,0.9c-1,0.8-2.4,2-4.1,3.5c-3.3,3-7.6,7.1-11.5,11.5
		c-1,1.1-1.9,2.2-2.8,3.4c-0.9,1.1-1.8,2.3-2.6,3.4c-0.8,1.1-1.6,2.2-2.3,3.2c-0.4,0.5-0.7,1-1,1.5s-0.6,1-0.9,1.5s-0.5,0.9-0.7,1.4
		c-0.2,0.4-0.4,0.9-0.6,1.3c-0.2,0.4-0.3,0.8-0.4,1.2s-0.2,0.7-0.3,1c-0.1,0.3-0.1,0.6-0.2,0.8c0,0.2,0,0.5,0,0.6c0,0.3,0,0.5,0,0.5
		h-0.2c0,0,0-0.2-0.1-0.5c0-0.2-0.1-0.4-0.1-0.7s0-0.6,0-0.9c0-0.3,0-0.7,0.1-1.1c0-0.4,0.1-0.8,0.2-1.3s0.2-1,0.4-1.4
		c0.2-0.5,0.3-1,0.6-1.6c0.4-1.1,1-2.2,1.6-3.3s1.4-2.3,2.3-3.4c0.9-1.1,1.8-2.2,2.8-3.3s2-2.2,3.1-3.3c4.2-4.3,8.7-8.2,12.2-11
		c1.8-1.4,3.3-2.5,4.3-3.2c0.5-0.4,1-0.7,1.3-0.8C517.5,134.1,517.7,134.1,517.7,134.1L517.7,134.1z"/>
</g>
</svg>
