<?xml version="1.0" encoding="utf-8"?>
<!-- Generator: Adobe Illustrator 19.1.0, SVG Export Plug-In . SVG Version: 6.00 Build 0)  -->
<svg version="1.1" id="Camada_1" xmlns="http://www.w3.org/2000/svg" xmlns:xlink="http://www.w3.org/1999/xlink" x="0px" y="0px"
	 viewBox="188.2 16 536.7 500.1" style="enable-background:new 188.2 16 536.7 500.1;" xml:space="preserve">
<style type="text/css">
	.st0{fill:#F7D85B;stroke:#E7C94B;stroke-miterlimit:10;}
	.st1{fill:#831719;stroke:#231F20;stroke-width:3;stroke-linecap:round;stroke-miterlimit:10;}
	.st2{fill:#982220;stroke:#231F20;stroke-width:3;stroke-linecap:round;stroke-miterlimit:10;}
	.st3{fill:#F4E0C5;}
	.st4{fill:#E7C94C;stroke:#C6A82E;stroke-miterlimit:10;}
	.st5{fill:#2E91CF;stroke:#24335B;stroke-miterlimit:10;}
	.st6{fill:#E7CFB1;stroke:#5E3126;stroke-miterlimit:10;}
	.st7{opacity:0.5;fill:#2E91CF;stroke:#24335B;stroke-miterlimit:10;enable-background:new    ;}
	.st8{fill:none;stroke:#231F20;stroke-width:3;stroke-linecap:round;stroke-miterlimit:10;}
	.st9{opacity:0.3;fill:#FFFFFF;enable-background:new    ;}
	.st10{fill:none;stroke:#CE9D84;stroke-miterlimit:10;}
</style>
<path class="st0" d="M370.7,69.7c0,0-104.2-5.8-124.4,76.5s0,76.5,0,76.5s53.2-11.7,57.4-14.4c4.3-2.7,84-70.2,86.1-71.8
	C392,135,370.7,69.7,370.7,69.7z"/>
<ellipse class="st1" cx="459.2" cy="464.3" rx="16.7" ry="12"/>
<path class="st2" d="M547.7,423.7c0,0,22.3,36.4-14.4,86.1c-29.6-14-63.5-30.6-67-43.1c-3.5-12.4,14.4-52.6,14.4-52.6L547.7,423.7z"
	/>
<path class="st2" d="M452,466.7c0,0-28.8,47.5-43.1,47.8c-14.3,0.3-38,2.2-47.8-38.3c-1.5-20.7-4.8-28.4,52.6-23.9
	s43.1,14.4,43.1,14.4H452z"/>
<path class="st0" d="M667.3,184.5c0,0,13.8-40.4,4.8-76.5c-18.1-38.8-16.5-43.6-28.7-43.1S538.2,45.8,538.2,45.8
	S510,69.1,509.4,69.7s43.1,114.8,43.1,114.8s95.1,14.9,95.7,14.4c0.5-0.5,19.1,9.6,19.1,9.6V184.5z"/>
<path class="st3" d="M227.2,256.2c0,0,20.7,143,138.7,186.6s205.7-9.6,205.7-9.6c77.1-55.3,106.8-107.4,114.8-157.9
	c-0.5,0.5,0-9.6,0-9.6s31.4,1.6,33.5-9.6c3.2-45.2,14.9-60.1-14.4-100.5c-18.6-11.7-43.1,9.6-52.6,38.3c-4.3-5.3-34-79.4-71.8-95.7
	c-37.7-16.3-55.8-17-57.4-19.1c-1.6-2.1-105.2-14.4-105.2-14.4l-33.5,5c0,0-41.1,19.1-71.8,47.8S260.7,194,260.7,194
	s6.4-50-28.7-52.6c-28.7,2.7-39.3,49.4-43.1,62.2C185.2,216.4,196.9,277,227.2,256.2z"/>
<path class="st4" d="M562,98.4l-23.9-52.6c0,0-94.1-34-143.5-28.7c-35.1,15.4-34.5,87.7,0,119.6c27.1,25,28.7,23.9,28.7,23.9
	L409,117.5c0,0,34,29.2,67,28.7c6.4-1.1,9-10.1-14.4-28.7c26,20.2,53.2,28.7,62.2,19.1c1.1-7.4-4.8-28.7-4.8-28.7
	s43.6,27.1,43.1,4.8C563.6,100.5,562,98.4,562,98.4z"/>
<path class="st0" d="M370.7,208.4c0,0-48.4-9.6-57.4,9.6C322.9,199.4,342,148.3,370.7,208.4z"/>
<path class="st0" d="M519.8,204.8c14.1-15.5,45.8-59.8,57.9,5.6C577.8,210.4,533.5,188.6,519.8,204.8"/>
<circle class="st5" cx="342" cy="251.4" r="14.4"/>
<circle class="st5" cx="552.5" cy="251.4" r="14.4"/>
<path class="st6" d="M519,323.2c0-25.1-31.1-52.6-69.4-52.6s-69.4,27.5-69.4,52.6s31.1,38.3,69.4,38.3S519,348.3,519,323.2z"/>
<circle class="st7" cx="509.4" cy="270.6" r="28.7"/>
<circle class="st7" cx="389.8" cy="275.4" r="28.7"/>
<path class="st8" d="M431,399.8c0.8,10.7,10.5,19.1,22.5,19.1s21.7-8.4,22.5-19.1"/>
<g>
	<polygon class="st9" points="385,256.2 365.9,280.2 370.7,289.7 389.8,256.2 	"/>
	<polygon class="st9" points="399.4,261 380.3,294.5 389.8,294.5 404.2,256.2 	"/>
</g>
<g>
	<polygon class="st9" points="509.4,251.4 490.3,275.4 495.1,284.9 514.2,251.4 	"/>
	<polygon class="st9" points="523.8,256.2 504.6,289.7 514.2,289.7 528.6,251.4 	"/>
</g>
<path class="st10" d="M236.8,200.9c0,0-0.7-17.5-14.4,3.2"/>
<path class="st10" d="M681.6,210c0,0,0.7-17.5,14.4,3.2"/>
</svg>
