<?xml version="1.0" encoding="utf-8"?>
<!-- Generator: Adobe Illustrator 19.1.0, SVG Export Plug-In . SVG Version: 6.00 Build 0)  -->
<svg version="1.1" id="Camada_1" xmlns="http://www.w3.org/2000/svg" xmlns:xlink="http://www.w3.org/1999/xlink" x="0px" y="0px"
	 viewBox="56.2 1.3 803.9 550.4" style="enable-background:new 56.2 1.3 803.9 550.4;" xml:space="preserve">
<style type="text/css">
	.st0{fill:#8E6566;stroke:#4F2E2E;stroke-width:4;stroke-miterlimit:10;}
	.st1{fill:#6E3333;stroke:#381D1D;stroke-width:4;stroke-miterlimit:10;}
	.st2{fill:#421817;stroke:#381D1D;stroke-width:4;stroke-miterlimit:10;}
</style>
<g>
	<polygon class="st0" points="62,292.9 70.5,463.3 300.5,548.4 300.5,335.5 	"/>
	<polygon class="st0" points="854,63 300.5,335.5 300.5,548.4 811.4,284.4 	"/>
	<polygon class="st0" points="564.5,3.4 854,63 300.5,335.5 62,292.9 	"/>
	
		<ellipse transform="matrix(-0.3022 -0.9532 0.9532 -0.3022 208.2091 908.6331)" class="st1" cx="436.7" cy="378.1" rx="42.6" ry="51.1"/>
	
		<ellipse transform="matrix(-0.3022 -0.9532 0.9532 -0.3022 197.9582 905.1177)" class="st2" cx="430.3" cy="380.1" rx="37" ry="44.4"/>
	
		<ellipse transform="matrix(-0.3022 -0.9532 0.9532 -0.3022 479.6636 935.3462)" class="st1" cx="582.2" cy="292.1" rx="42.6" ry="51.1"/>
	
		<ellipse transform="matrix(-0.3022 -0.9532 0.9532 -0.3022 469.4128 931.8307)" class="st2" cx="575.8" cy="294.1" rx="37" ry="44.4"/>
	<g>
		
			<ellipse transform="matrix(-0.3022 -0.9532 0.9532 -0.3022 725.0387 995.764)" class="st1" cx="727" cy="232.5" rx="42.6" ry="51.1"/>
		
			<ellipse transform="matrix(-0.3022 -0.9532 0.9532 -0.3022 714.6347 992.1971)" class="st2" cx="720.5" cy="234.5" rx="37" ry="44.4"/>
	</g>
</g>
</svg>
