<?xml version="1.0" encoding="utf-8"?>
<!-- Generator: Adobe Illustrator 19.1.0, SVG Export Plug-In . SVG Version: 6.00 Build 0)  -->
<svg version="1.1" id="Camada_1" xmlns="http://www.w3.org/2000/svg" xmlns:xlink="http://www.w3.org/1999/xlink" x="0px" y="0px"
	 viewBox="5 8.7 921.3 544.3" style="enable-background:new 5 8.7 921.3 544.3;" xml:space="preserve">
<style type="text/css">
	.st0{fill:#1C2334;}
	.st1{fill:#5B9842;stroke:#381D1D;stroke-linecap:round;stroke-linejoin:round;stroke-miterlimit:10;}
</style>
<g>
	<path class="st0" d="M5,214c1.9-2.1,4.2-3.8,6.4-5.4c2.3-1.6,4.7-3.1,7.1-4.5c4.9-2.8,9.9-5.3,15.1-7.6c5.1-2.3,10.4-4.3,15.7-6.2
		s10.7-3.6,16.1-5.2c10.8-3.2,21.7-5.9,32.7-8.3c11-2.4,22.1-4.4,33.2-6.2s22.2-3.4,33.4-4.7c11.2-1.3,22.3-2.5,33.5-3.5
		c22.4-2,44.8-3.3,67.3-4.1s44.9-1.2,67.4-1.3c22.5,0,44.9,0.4,67.4,1c22.5,0.7,44.9,1.6,67.3,2.8s44.8,2.7,67.2,4.3l16.8,1.3
		l16.8,1.4c5.6,0.4,11.2,0.9,16.8,1.4l16.8,1.5l16.8,1.6l8.3,0.8l8.4,0.7c11,0.8,22.1,1.1,33.2,1c11.1-0.1,22.1-0.8,33.1-2
		s21.8-3.2,32.5-5.7c21.3-5.1,42.1-13.2,59.9-25.7c8.9-6.2,17.1-13.5,23.9-21.8c6.8-8.3,12.2-17.7,15.4-27.9
		c1.6-5.1,2.6-10.3,2.9-15.6c0.4-5.3,0-10.5-1.1-15.7c-1.1-5.1-3-10.1-5.5-14.7c-2.6-4.5-5.8-8.8-9.6-12.4c-1-0.9-1.9-1.8-3-2.6
		c-0.5-0.4-1-0.9-1.5-1.2l-1.6-1.2l-0.8-0.6l-0.8-0.5l-1.7-1.2c-1.2-0.7-2.2-1.4-3.4-2.1c-4.7-2.7-9.5-5-14.6-6.6
		c-5.1-1.7-10.4-2.6-15.7-2.9c-5.3-0.2-10.7,0.2-15.9,1.4c-10.5,2.4-20.3,7.5-29.1,14c-4.4,3.3-8.6,6.9-12.4,10.8
		c-3.9,3.9-7.6,8.1-10.7,12.5l0.2-0.3c-0.5,1.1-1,2.5-1.3,3.8c-0.4,1.3-0.7,2.6-0.9,4c-0.4,2.7-0.5,5.4-0.3,8.1
		c0.3,2.7,0.9,5.3,2.1,7.8c1.1,2.5,2.6,4.7,4.5,6.7c3.7,4,8.7,6.8,13.9,8.9c2.6,1,5.3,1.8,8.1,2.5c1.4,0.3,2.8,0.6,4.2,0.9
		s2.8,0.5,4.2,0.7h-0.2c5.1-0.6,10.1-1.9,14.9-3.9c4.7-2,9.1-4.8,12.7-8.6c1.8-1.9,3.3-4,4.3-6.3c0.5-1.2,0.9-2.4,1-3.7
		c0.1-1.3,0-2.6-0.6-3.6c-0.6-1.1-1.7-1.8-2.9-2.2c-1.2-0.3-2.5-0.4-3.8-0.2c-2.6,0.3-5,1.2-7.4,2.3c2.3-1.1,4.8-2.1,7.4-2.5
		c1.3-0.2,2.6-0.2,3.9,0.1c1.3,0.3,2.5,1.1,3.2,2.3c0.7,1.2,0.9,2.6,0.8,3.9c-0.1,1.3-0.5,2.6-1,3.9c-1,2.5-2.5,4.7-4.3,6.6
		c-3.5,3.9-8,6.9-12.8,9.2c-4.8,2.2-9.9,3.6-15.2,4.4c-0.1,0-0.1,0-0.2,0l0,0c-1.4-0.2-2.9-0.4-4.3-0.6c-1.4-0.2-2.9-0.5-4.3-0.8
		c-2.8-0.6-5.7-1.4-8.4-2.3c-5.5-1.9-10.9-4.7-15.1-9c-2.1-2.1-3.9-4.6-5.3-7.4c-1.3-2.7-2.2-5.7-2.6-8.7c-0.4-3-0.3-6.1,0.1-9
		c0.2-1.5,0.5-3,0.8-4.4c0.4-1.5,0.8-2.9,1.4-4.4c0-0.1,0.1-0.2,0.1-0.2l0,0c3.3-4.8,6.9-9.2,10.8-13.3c3.9-4.2,8.1-8,12.6-11.6
		c9-7.1,19.4-12.7,30.8-15.6c5.7-1.4,11.6-2.1,17.4-1.9c5.9,0.2,11.7,1.2,17.3,2.9s11,4.1,16.1,6.9c1.3,0.7,2.6,1.5,3.8,2.2l1.8,1.1
		l0.9,0.6l0.9,0.6l1.8,1.3c0.6,0.4,1.2,0.9,1.7,1.4c1.2,0.9,2.3,1.9,3.4,2.9c4.4,4,8.1,8.7,11.2,13.9c3,5.2,5.2,10.8,6.5,16.6
		s1.8,11.8,1.5,17.7s-1.3,11.8-3,17.5c-3.4,11.3-9.2,21.8-16.5,30.9s-16,17-25.4,23.7c-4.7,3.3-9.6,6.4-14.7,9.2
		c-5.1,2.8-10.2,5.3-15.5,7.6c-10.6,4.5-21.5,8.1-32.6,10.9c-22.2,5.5-45,7.9-67.7,8.2c-11.4,0.2-22.7-0.2-34.1-0.9l-8.4-0.6
		l-8.5-0.8l-16.7-1.6c-22.3-2-44.6-4-67-5.7c-22.3-1.7-44.7-3.3-67-4.5c-22.4-1.3-44.7-2.5-67.1-3.3c-22.4-0.9-44.7-1.4-67.1-1.7
		s-44.8-0.3-67.1,0.2c-5.6,0.1-11.2,0.2-16.8,0.5l-8.4,0.3l-8.4,0.3c-11.2,0.4-22.3,1-33.5,1.8c-22.3,1.5-44.6,3.6-66.8,6.6
		s-44.2,6.9-65.8,12.5c-10.8,2.8-21.5,6.1-31.9,10.2c-5.2,2.1-10.3,4.3-15.3,6.9c-2.5,1.3-4.9,2.7-7.3,4.2C9.3,210.4,7,212,5,214z"
		/>
</g>
<g>
	<path class="st0" d="M68,295c0,0,3.3-2.7,9.9-6.9c6.7-4.2,16.8-10,30.3-16s30.4-12.2,50.3-17.7c19.9-5.4,42.8-10.2,68-13.1
		c3.2-0.3,6.3-0.7,9.6-1c3.2-0.3,6.5-0.7,9.8-0.9c3.3-0.3,6.6-0.5,10-0.8c1.7-0.1,3.4-0.3,5.1-0.4c1.7-0.1,3.4-0.2,5.1-0.2
		c3.4-0.2,6.9-0.3,10.3-0.5c1.7-0.1,3.5-0.2,5.2-0.2c1.8,0,3.5,0,5.3-0.1c7.1,0,14.3-0.3,21.5,0c29.1,0.4,59.8,2.6,91.2,6.8
		c31.5,4.1,63.8,10,96.2,17.7c4.1,1,8.1,1.8,12.2,2.9c4,1,8.1,2.1,12.2,3.2c8.1,2.1,16.2,4.2,24.3,6.3c8.1,2.2,16.2,4.1,24.3,6.1
		L581,283l12.3,2.6c32.8,6.9,66,11.8,98.8,13.9c2.1,0.1,4.1,0.3,6.1,0.4s4.1,0.2,6.1,0.3c4.1,0.2,8.2,0.3,12.2,0.3
		c4.1,0.1,8.1,0.1,12.2,0.1c4,0,8.1-0.1,12.1-0.2c16.1-0.6,31.9-1.9,47.3-4.3c7.7-1.2,15.3-2.7,22.7-4.4c7.4-1.8,14.7-3.7,21.9-6
		c14.2-4.6,27.8-10.2,40.1-17.3c12.3-7,23.4-15.4,32.2-25.2c2.2-2.4,4.2-5,6.1-7.6c1.8-2.6,3.5-5.3,5-8.1c1.4-2.8,2.6-5.6,3.4-8.5
		c0.8-2.9,1.2-5.8,1.1-8.5c-0.1-2.8-0.8-5.4-2.2-7.5c-1.3-2.1-3.3-3.7-5.7-4.7c-2.8-1.2-5.5-2.3-8.3-3.3c-2.7-1-5.4-2.1-8.1-3
		c-5.4-1.8-10.7-3.3-15.9-4.2c-2.6-0.4-5.2-0.7-7.7-0.7s-5,0.2-7.3,0.8c-4.7,1.1-8.7,3.5-11.8,6.8c-1.6,1.6-2.9,3.4-4.1,5.3
		c-1.2,1.9-2.2,3.8-3.2,5.8c-0.9,2-1.7,3.9-2.5,5.9c-0.3,1-0.7,2-1,2.9c-0.3,1-0.6,1.9-0.8,2.9c-0.4,1.9-0.7,3.8-0.5,5.5
		c0.2,1.8,0.8,3.4,1.8,4.6c1.1,1.2,2.6,2,4.1,2.5c1.6,0.5,3.2,0.7,4.8,0.8c3.2,0.1,6.2-0.2,9-0.6c5.6-0.9,10.3-2.2,14.1-3.4
		s6.6-2.2,8.5-2.9s2.9-1.1,2.9-1.1s-1,0.5-2.8,1.3c-1.9,0.8-4.7,2-8.4,3.3s-8.4,2.9-14,4c-2.8,0.6-5.9,1-9.3,1
		c-1.7,0-3.4-0.2-5.2-0.7s-3.6-1.3-5.1-2.8s-2.3-3.6-2.6-5.7c-0.3-2.1-0.1-4.2,0.3-6.3c0.2-1,0.5-2.1,0.8-3.1c0.3-1.1,0.6-2,1-3.1
		c0.7-2,1.5-4.1,2.3-6.2c0.9-2.1,1.9-4.2,3.1-6.2c1.2-2.1,2.6-4.1,4.3-6s3.6-3.6,5.9-5.1c2.3-1.4,4.8-2.5,7.4-3.2
		c2.7-0.7,5.4-1.1,8.2-1.1c2.8-0.1,5.6,0.2,8.4,0.5c5.6,0.8,11.2,2.2,16.7,3.9c2.8,0.8,5.6,1.8,8.4,2.8c2.8,1,5.6,2.1,8.5,3.2
		c3.3,1.2,6.3,3.6,8.3,6.6c2.1,3.1,3.1,6.7,3.3,10.2s-0.2,7-1.1,10.4c-0.9,3.4-2.1,6.6-3.6,9.7c-1.5,3.1-3.3,6.1-5.2,9
		c-2,2.8-4.1,5.7-6.4,8.3c-4.6,5.3-9.8,10.2-15.4,14.8c-5.6,4.5-11.7,8.6-18,12.4c-12.7,7.6-26.7,13.7-41.3,18.7
		c-7.3,2.5-14.8,4.6-22.5,6.5c-7.7,1.8-15.4,3.4-23.3,4.7c-15.8,2.6-32,4.2-48.4,4.9c-4.1,0.1-8.2,0.3-12.3,0.3s-8.3,0.1-12.4,0
		c-4.1-0.1-8.3-0.1-12.5-0.3c-2.1-0.1-4.2-0.2-6.3-0.2c-2.1-0.1-4.2-0.2-6.3-0.4c-33.4-2-67.1-6.9-100.2-13.7l-12.4-2.7
		c-4.1-1-8.2-1.9-12.4-2.9c-8.2-2-16.5-4.1-24.6-6.3c-8.1-2.1-16.2-4.3-24.3-6.4c-4-1.1-8-2.1-12-3.2c-4-1-8.1-1.9-12.1-2.9
		c-4-0.9-8-1.9-12-2.8c-2-0.5-4-0.9-6-1.4c-2-0.4-4-0.8-6-1.3c-8-1.7-16-3.4-23.9-5c-8-1.4-15.9-2.9-23.7-4.3
		c-7.9-1.3-15.7-2.4-23.5-3.6c-31.1-4.4-61.4-7.2-90.2-8.1c-28.8-0.9-56.1-0.1-81.1,2.3c-1.6,0.1-3.1,0.3-4.7,0.5
		c-1.5,0.2-3.1,0.4-4.6,0.5c-3.1,0.4-6.1,0.7-9.1,1.1c-3,0.4-5.9,0.9-8.8,1.3c-2.9,0.5-5.8,0.8-8.6,1.3c-11.3,1.9-22,4-31.9,6.4
		c-19.9,4.8-36.9,10.3-50.5,15.8s-24,10.7-30.8,14.6C71.4,292.5,68,295,68,295z"/>
</g>
<g>
	<path class="st0" d="M59,349c0,0,3.7-0.5,10.8-1.4c7-0.9,17.3-2.2,30.5-3.6c13.1-1.4,29.1-3.1,47.4-4.7s39-3.3,61.7-4.7
		c11.3-0.7,23.1-1.4,35.3-2c12.2-0.6,24.8-1.1,37.8-1.5c26-0.8,53.4-1.3,81.7-1c14.2,0.1,28.6,0.4,43.2,0.9c7.3,0.3,14.6,0.5,22,0.9
		s14.8,0.8,22.2,1.3c29.7,2,59.9,5.1,89.9,9.8c30,4.9,59.8,11.4,88.3,21.2c7.1,2.5,14.1,5.2,21,8.1c6.9,3,13.6,6.3,20.1,9.9
		s12.8,7.6,18.7,12.1c5.9,4.4,11.5,9.3,16.5,14.8c2.5,2.7,4.8,5.6,7.1,8.5c1,1.5,2.2,3,3.1,4.6c0.5,0.8,1,1.5,1.5,2.3l1.4,2.4
		l0.7,1.2l0.6,1.2l1.2,2.3c0.8,1.5,1.6,3,2.4,4.6c0.8,1.6,1.5,3.1,2.3,4.7c0.7,1.6,1.5,3.1,2.2,4.7c5.8,12.5,10.7,25.2,13.9,38.2
		c1.6,6.5,2.6,13,3,19.6c0.1,3.3,0.1,6.6-0.3,9.9c-0.1,1.6-0.4,3.3-0.7,4.9c-0.2,0.8-0.4,1.6-0.5,2.4c-0.2,0.8-0.4,1.6-0.7,2.4
		c-1.8,6.3-5.3,12.2-9.9,16.7c-4.6,4.5-10.2,7.5-15.8,9.6c-5.7,2-11.4,3-17,3.4s-11,0.3-16.3-0.2c-10.5-1.1-20.2-3.4-29-6.7
		c-2.2-0.8-4.3-1.7-6.4-2.8c-1-0.5-2-1-3-1.6c-0.5-0.3-1-0.6-1.5-0.9c-0.2-0.2-0.5-0.3-0.7-0.5l-0.4-0.2l-0.2-0.1
		c0,0-0.2-0.1-0.2-0.2c-0.4-0.3-0.8-0.7-1.2-1s-0.8-0.6-1.2-1.1c-0.8-0.8-1.7-1.6-2.3-2.4c-0.3-0.4-0.7-0.8-1-1.3
		c-0.3-0.4-0.6-0.9-0.9-1.3c-0.6-0.9-1.1-1.8-1.6-2.7c-1.9-3.7-2.8-7.7-3.1-11.5s0.1-7.4,0.8-10.7c1.5-6.6,4.6-12,8.1-15.9
		s7.5-6.2,10.9-7.2c3.5-1,6.3-0.9,8.1-0.7c0.9,0.1,1.6,0.3,2,0.4c0.5,0.1,0.7,0.1,0.7,0.1s-0.2,0-0.7-0.1s-1.1-0.2-2-0.3
		c-1.8-0.1-4.6-0.1-7.9,1c-3.3,1.2-7,3.6-10.2,7.5c-3.1,3.9-5.8,9.2-7,15.5c-0.6,3.2-0.8,6.6-0.4,10.1c0.4,3.5,1.4,7.1,3.3,10.3
		c0.5,0.8,0.9,1.6,1.5,2.4c0.3,0.4,0.6,0.8,0.9,1.2c0.3,0.4,0.6,0.7,1,1.1c0.6,0.8,1.4,1.4,2.1,2c0.3,0.3,0.8,0.6,1.2,1
		c0.4,0.3,0.9,0.6,1.3,1c0.4,0.3,0.8,0.5,1.2,0.8s0.9,0.5,1.4,0.8c0.9,0.5,1.9,1,2.9,1.4c2,0.9,4,1.7,6.2,2.4
		c8.5,2.9,18,4.8,28.1,5.5c5,0.3,10.2,0.3,15.4-0.2s10.5-1.6,15.5-3.5s9.7-4.7,13.4-8.6c3.7-3.9,6.5-8.7,7.9-14.1
		c0.7-2.7,1.2-5.5,1.4-8.4c0.3-2.9,0.2-5.9,0.1-8.9c-0.4-6-1.5-12.1-3.1-18.2c-3.2-12.2-8.2-24.4-14.1-36.4c-0.7-1.5-1.5-3-2.2-4.5
		c-0.8-1.5-1.5-3-2.3-4.5s-1.6-3-2.4-4.5l-1.2-2.3l-0.6-1.1l-0.6-1l-1.2-2.1c-0.4-0.7-0.9-1.4-1.3-2.1c-0.9-1.4-1.9-2.7-2.9-4.1
		c-2-2.6-4.2-5.2-6.5-7.7c-4.6-4.9-9.9-9.4-15.5-13.5s-11.6-7.8-17.8-11.2c-6.2-3.4-12.7-6.5-19.4-9.3c-6.6-2.8-13.5-5.4-20.4-7.8
		c-27.7-9.5-57.1-15.7-86.7-20.5c-29.6-4.8-59.5-7.9-89-10c-14.8-1-29.4-1.9-43.9-2.6s-28.8-1.1-43-1.4c-28.2-0.6-55.5-0.7-81.4-0.3
		c-12.9,0.1-25.5,0.4-37.7,0.7c-12.2,0.3-24,0.6-35.3,1.1c-22.6,0.9-43.3,1.8-61.7,2.8s-34.4,2-47.5,2.9
		c-13.2,0.9-23.5,1.6-30.6,2.2C62.8,348.7,59,349,59,349z"/>
</g>
<path class="st1" d="M815,349c0,0,44,3,45,81c21,81,36,45,36,45s40-48-36-90"/>
<path class="st1" d="M320.2,136.6c0,0-6.8-43.6,69-61.8c74.3-38.4,35.9-45.1,35.9-45.1s-55.7-28.4-79.8,55"/>
</svg>
